<svg width="32" height="24" viewBox="0 0 32 24" fill="none" xmlns="http://www.w3.org/2000/svg">
<path d="M31.9926 8.68156C32.0645 6.60091 31.6095 4.53583 30.6698 2.67807C30.0323 1.91579 29.1475 1.40136 28.1696 1.22444C24.1249 0.857439 20.0635 0.707016 16.0027 0.773819C11.9568 0.703984 7.90995 0.849553 3.87947 1.20991C3.08262 1.35486 2.34519 1.72862 1.75717 2.28559C0.448904 3.4921 0.303541 5.55626 0.158178 7.30061C-0.0527259 10.4369 -0.0527259 13.5838 0.158178 16.7201C0.200232 17.7019 0.346414 18.6765 0.594266 19.6274C0.769538 20.3616 1.12415 21.0408 1.62634 21.6043C2.21836 22.1908 2.97296 22.5858 3.79225 22.7381C6.92615 23.125 10.0839 23.2853 13.2408 23.2178C18.3285 23.2905 22.7912 23.2178 28.0678 22.8108C28.9072 22.6678 29.6831 22.2723 30.2919 21.677C30.6988 21.2699 31.0028 20.7715 31.1786 20.2234C31.6985 18.6282 31.9538 16.9587 31.9345 15.281C31.9926 14.467 31.9926 9.55373 31.9926 8.68156ZM12.7175 16.1532V7.15525L21.323 11.676C18.91 13.0134 15.7265 14.5251 12.7175 16.1532Z" fill="#3E7578"/>
</svg>
