<svg width="251" height="83" viewBox="0 0 251 83" fill="none" xmlns="http://www.w3.org/2000/svg">
<path d="M5.7932 2.91307C5.7932 4.52409 4.49973 5.83166 2.89934 5.83166C1.29895 5.83166 0 4.52409 0 2.91307C0 1.30206 1.29347 0 2.89386 0C4.49425 0 5.78772 1.30757 5.78772 2.91307H5.7932Z" fill="#6DB3AE"/>
<path d="M12.7594 9.83177C12.7594 11.4428 11.4659 12.7448 9.86554 12.7448C8.26515 12.7448 6.97168 11.4428 6.97168 9.83177C6.97168 8.22076 8.26515 6.9187 9.86554 6.9187C11.4659 6.9187 12.7594 8.22627 12.7594 9.83177Z" fill="#6DB3AE"/>
<path d="M16.7601 12.7448C18.3583 12.7448 19.6539 11.4406 19.6539 9.83177C19.6539 8.22293 18.3583 6.9187 16.7601 6.9187C15.1618 6.9187 13.8662 8.22293 13.8662 9.83177C13.8662 11.4406 15.1618 12.7448 16.7601 12.7448Z" fill="#6DB3AE"/>
<path d="M12.7594 16.7717C12.7594 18.3827 11.4659 19.6848 9.86554 19.6848C8.26515 19.6848 6.97168 18.3827 6.97168 16.7717C6.97168 15.1607 8.26515 13.8586 9.86554 13.8586C11.4659 13.8586 12.7594 15.1607 12.7594 16.7717Z" fill="#6DB3AE"/>
<path d="M19.5729 16.7717C19.5729 18.3827 18.2739 19.6848 16.679 19.6848C15.0841 19.6848 13.7852 18.3827 13.7852 16.7717C13.7852 15.1607 15.0786 13.8586 16.679 13.8586C18.2794 13.8586 19.5729 15.1607 19.5729 16.7717Z" fill="#283848"/>
<path d="M33.3561 16.7717C33.3561 18.3827 32.0571 19.6848 30.4622 19.6848C28.8673 19.6848 27.5684 18.3827 27.5684 16.7717C27.5684 15.1607 28.8618 13.8586 30.4622 13.8586C32.0626 13.8586 33.3561 15.1607 33.3561 16.7717Z" fill="#283848"/>
<path d="M47.1721 16.7717C47.1721 18.3827 45.8732 19.6848 44.2728 19.6848C42.6724 19.6848 41.3789 18.3827 41.3789 16.7717C41.3789 15.1607 42.6724 13.8586 44.2728 13.8586C45.8732 13.8586 47.1721 15.1607 47.1721 16.7717Z" fill="#6DB3AE"/>
<path d="M26.4615 23.7014C26.4615 25.3124 25.1681 26.62 23.5677 26.62C21.9673 26.62 20.6738 25.3124 20.6738 23.7014C20.6738 22.0904 21.9728 20.7883 23.5677 20.7883C25.1626 20.7883 26.4615 22.0959 26.4615 23.7014Z" fill="#283848"/>
<path d="M33.3561 23.7014C33.3561 25.3124 32.0571 26.62 30.4622 26.62C28.8673 26.62 27.5684 25.3124 27.5684 23.7014C27.5684 22.0904 28.8618 20.7883 30.4622 20.7883C32.0626 20.7883 33.3561 22.0959 33.3561 23.7014Z" fill="#6DB3AE"/>
<path d="M16.679 33.6159C18.2772 33.6159 19.5729 32.3117 19.5729 30.7029C19.5729 29.094 18.2772 27.7898 16.679 27.7898C15.0808 27.7898 13.7852 29.094 13.7852 30.7029C13.7852 32.3117 15.0808 33.6159 16.679 33.6159Z" fill="#6DB3AE"/>
<path d="M26.4615 30.7029C26.4615 32.3139 25.1681 33.6159 23.5677 33.6159C21.9673 33.6159 20.6738 32.3139 20.6738 30.7029C20.6738 29.0919 21.9728 27.7898 23.5677 27.7898C25.1626 27.7898 26.4615 29.0919 26.4615 30.7029Z" fill="#6DB3AE"/>
<path d="M33.3561 30.7029C33.3561 32.3139 32.0571 33.6159 30.4622 33.6159C28.8673 33.6159 27.5684 32.3139 27.5684 30.7029C27.5684 29.0919 28.8618 27.7898 30.4622 27.7898C32.0626 27.7898 33.3561 29.0919 33.3561 30.7029Z" fill="#283848"/>
<path d="M54.1173 30.7029C54.1173 32.3139 52.8238 33.6159 51.2234 33.6159C49.6231 33.6159 48.3296 32.3139 48.3296 30.7029C48.3296 29.0919 49.6285 27.7898 51.2234 27.7898C52.8184 27.7898 54.1173 29.0919 54.1173 30.7029Z" fill="#3E7578"/>
<path d="M58.1019 33.6159C59.7001 33.6159 60.9957 32.3117 60.9957 30.7029C60.9957 29.094 59.7001 27.7898 58.1019 27.7898C56.5036 27.7898 55.208 29.094 55.208 30.7029C55.208 32.3117 56.5036 33.6159 58.1019 33.6159Z" fill="#3E7578"/>
<path d="M26.4615 37.6721C26.4615 39.2831 25.1681 40.5852 23.5677 40.5852C21.9673 40.5852 20.6738 39.2831 20.6738 37.6721C20.6738 36.0611 21.9728 34.759 23.5677 34.759C25.1626 34.759 26.4615 36.0611 26.4615 37.6721Z" fill="#6DB3AE"/>
<path d="M47.1721 37.6721C47.1721 39.2831 45.8732 40.5852 44.2728 40.5852C42.6724 40.5852 41.3789 39.2831 41.3789 37.6721C41.3789 36.0611 42.6724 34.759 44.2728 34.759C45.8732 34.759 47.1721 36.0611 47.1721 37.6721Z" fill="#283848"/>
<path d="M26.4615 44.6113C26.4615 46.2223 25.1681 47.5299 23.5677 47.5299C21.9673 47.5299 20.6738 46.2223 20.6738 44.6113C20.6738 43.0003 21.9728 41.6982 23.5677 41.6982C25.1626 41.6982 26.4615 43.0058 26.4615 44.6113Z" fill="#6DB3AE"/>
<path d="M40.2458 44.6113C40.2458 46.2223 38.9469 47.5299 37.352 47.5299C35.7571 47.5299 34.4526 46.2223 34.4526 44.6113C34.4526 43.0003 35.7516 41.6982 37.352 41.6982C38.9524 41.6982 40.2458 43.0058 40.2458 44.6113Z" fill="#283848"/>
<path d="M54.1173 44.6113C54.1173 46.2223 52.8238 47.5299 51.2234 47.5299C49.6231 47.5299 48.3296 46.2223 48.3296 44.6113C48.3296 43.0003 49.6285 41.6982 51.2234 41.6982C52.8184 41.6982 54.1173 43.0058 54.1173 44.6113Z" fill="#3E7578"/>
<path d="M26.4615 51.5749C26.4615 53.186 25.1681 54.4935 23.5677 54.4935C21.9673 54.4935 20.6738 53.186 20.6738 51.5749C20.6738 49.9639 21.9728 48.6619 23.5677 48.6619C25.1626 48.6619 26.4615 49.9639 26.4615 51.5749Z" fill="#93C01F"/>
<path d="M26.4615 58.5211C26.4615 60.1266 25.1681 61.4342 23.5677 61.4342C21.9673 61.4342 20.6738 60.1321 20.6738 58.5211C20.6738 56.9101 21.9728 55.6025 23.5677 55.6025C25.1626 55.6025 26.4615 56.9046 26.4615 58.5211Z" fill="#93C01F"/>
<path d="M33.3561 58.5211C33.3561 60.1266 32.0571 61.4342 30.4622 61.4342C28.8673 61.4342 27.5684 60.1321 27.5684 58.5211C27.5684 56.9101 28.8618 55.6025 30.4622 55.6025C32.0626 55.6025 33.3561 56.9046 33.3561 58.5211Z" fill="#93C01F"/>
<path d="M37.3352 55.5974C37.2914 55.5974 37.253 55.6085 37.2092 55.6085C35.0498 55.5423 33.3233 53.7712 33.3178 51.5809L33.3507 37.6997C33.3507 37.6997 33.3507 37.6776 33.3507 37.6721C33.3507 36.0611 32.0518 34.759 30.4569 34.759C28.8619 34.759 27.5959 36.0335 27.5685 37.6169L27.5137 51.432H27.5301C27.5301 51.4816 27.5137 51.5258 27.5137 51.5754C27.5137 53.1864 28.8126 54.4885 30.413 54.4885C30.4623 54.4885 30.5117 54.4774 30.561 54.4719C32.7095 54.5492 34.4359 56.3257 34.4359 58.5105C34.4359 58.5215 34.4359 58.5381 34.4359 58.5491L34.4469 58.5602C34.4743 60.1491 35.7513 61.4291 37.3352 61.4291C38.9192 61.4291 40.2346 60.1215 40.2346 58.5105C40.2346 56.8995 38.9356 55.5974 37.3352 55.5974Z" fill="#93C01F"/>
<path d="M16.6776 20.7883C15.8336 20.7883 15.0882 21.158 14.562 21.7373L14.288 21.9911C13.4878 22.5538 12.9945 22.5538 12.1943 21.9911L11.8765 21.7042C11.3503 21.1469 10.6159 20.7883 9.79376 20.7883C8.19337 20.7883 6.8999 22.0959 6.8999 23.7014C6.8999 25.3069 8.19337 26.62 9.79376 26.62C10.572 26.62 11.2626 26.3055 11.7833 25.8034L12.1121 25.5055C12.9781 24.871 13.4714 24.86 14.3264 25.4614L14.4141 25.5331L14.6936 25.7924C15.2143 26.2945 15.9048 26.62 16.6886 26.62C18.289 26.62 19.5824 25.3124 19.5824 23.7014C19.5824 22.0904 18.2835 20.7883 16.6886 20.7883H16.6776Z" fill="#3E7578"/>
<path d="M30.4625 6.9187C29.6842 6.9187 28.9937 7.23318 28.473 7.73524L28.1441 8.03317C27.2782 8.66765 26.7849 8.67868 25.9299 8.07731L25.8422 8.00559L25.5627 7.74628C25.042 7.24421 24.3514 6.9187 23.5677 6.9187C21.9673 6.9187 20.6738 8.22627 20.6738 9.83729C20.6738 10.698 21.052 11.4593 21.6384 11.9945L21.8686 12.2428C22.4277 13.0483 22.4277 13.5448 21.8686 14.3503L21.5836 14.6703C21.0301 15.2055 20.6738 15.9393 20.6738 16.7724C20.6738 18.3834 21.9728 19.6855 23.5677 19.6855C25.1626 19.6855 26.467 18.3834 26.467 16.7724C26.467 15.989 26.1546 15.2938 25.6559 14.7697L25.3544 14.4386C24.7241 13.5669 24.7132 13.0704 25.3106 12.2097L25.3818 12.1214L25.6394 11.84L25.9573 11.5476C26.7575 10.9849 27.2508 10.9849 28.051 11.5476L28.3689 11.8345C28.895 12.3917 29.6294 12.7504 30.4516 12.7504C32.0519 12.7504 33.3454 11.4428 33.3454 9.83729C33.3454 8.23179 32.0519 6.9187 30.4516 6.9187H30.4625Z" fill="#3E7578"/>
<path d="M30.4516 62.5535C29.6075 62.5535 28.8621 62.9231 28.336 63.5024L28.0619 63.7562C27.2617 64.319 26.7685 64.319 25.9683 63.7562L25.6504 63.4693C25.1242 62.9121 24.3898 62.5535 23.5677 62.5535C21.9673 62.5535 20.6738 63.861 20.6738 65.4665C20.6738 67.072 21.9673 68.3851 23.5677 68.3851C24.346 68.3851 25.0365 68.0707 25.5572 67.5686L25.8861 67.2707C26.752 66.6362 27.2453 66.6251 28.1003 67.2265L28.188 67.2982L28.4675 67.5576C28.9882 68.0596 29.6788 68.3851 30.4625 68.3851C32.0629 68.3851 33.3564 67.0776 33.3564 65.4665C33.3564 63.8555 32.0574 62.5535 30.4625 62.5535H30.4516Z" fill="#93C01F"/>
<path d="M44.2411 48.6619C43.3971 48.6619 42.6517 49.0315 42.1255 49.6108L41.8515 49.8646C41.0513 50.4274 40.558 50.4274 39.7578 49.8646L39.4399 49.5777C38.9138 49.0205 38.1794 48.6619 37.3572 48.6619C35.7568 48.6619 34.4634 49.9694 34.4634 51.5749C34.4634 53.1804 35.7568 54.4935 37.3572 54.4935C38.1355 54.4935 38.8261 54.1791 39.3468 53.677L39.6756 53.3791C40.5416 52.7446 41.0348 52.7335 41.8899 53.3349L41.9775 53.4066L42.2571 53.6659C42.7777 54.168 43.4683 54.4935 44.2521 54.4935C45.8525 54.4935 47.1459 53.186 47.1459 51.5749C47.1459 49.9639 45.847 48.6619 44.2521 48.6619H44.2411Z" fill="#3E7578"/>
<path d="M58.1122 20.7883C57.2682 20.7883 56.5228 21.158 55.9966 21.7373L55.7226 21.9911C54.9224 22.5538 54.4291 22.5538 53.6289 21.9911L53.311 21.7042C52.7849 21.1469 52.0504 20.7883 51.2283 20.7883C49.6279 20.7883 48.3345 22.0959 48.3345 23.7014C48.3345 25.3069 49.6279 26.62 51.2283 26.62C52.0066 26.62 52.6972 26.3055 53.2179 25.8034L53.5467 25.5055C54.4127 24.871 54.9059 24.86 55.7609 25.4614L55.8486 25.5331L56.1282 25.7924C56.6488 26.2945 57.3394 26.62 58.1232 26.62C59.7236 26.62 61.017 25.3124 61.017 23.7014C61.017 22.0904 59.7181 20.7883 58.1232 20.7883H58.1122Z" fill="#3E7578"/>
<path d="M37.4064 40.5854H37.7626C37.7626 40.5854 37.6585 40.3261 37.6201 40.315C37.5818 40.304 37.3022 40.4088 37.3022 40.4088L37.4064 40.5798V40.5854Z" fill="#3E7578"/>
<path d="M26.4607 79.3599C26.4607 78.5102 26.0935 77.7599 25.518 77.2303L25.2659 76.9544C24.7068 76.1489 24.7068 75.6523 25.2659 74.8468L25.5509 74.5268C26.1044 73.9917 26.4607 73.2579 26.4607 72.4248C26.4607 70.8138 25.1617 69.5117 23.5668 69.5117C21.9719 69.5117 20.6675 70.8138 20.6675 72.4248C20.6675 73.2082 20.9799 73.9034 21.4786 74.4275L21.7801 74.7586C22.4104 75.6303 22.4213 76.1268 21.8239 76.9875L21.7527 77.0758L21.4951 77.3572C20.9908 77.8813 20.673 78.582 20.673 79.3654C20.673 80.9764 21.9719 82.2785 23.5723 82.2785C25.1727 82.2785 26.4662 80.9709 26.4662 79.3654L26.4607 79.3599Z" fill="#93C01F"/>
<path d="M51.2017 34.7255C51.1578 34.7255 51.1195 34.7365 51.0756 34.7365C48.9162 34.6703 47.1897 32.8993 47.1842 30.709L47.1568 23.6636C47.1294 22.0746 45.8469 20.7946 44.263 20.7946C44.2191 20.7946 44.1808 20.8057 44.1369 20.8057C41.9775 20.7394 40.251 18.9684 40.2456 16.7781L40.2346 16.7671C40.2346 15.1561 38.9357 13.854 37.3407 13.854C35.7458 13.854 34.4414 15.1561 34.4414 16.7671C34.4414 18.3781 35.7404 19.6801 37.3407 19.6801C37.3901 19.6801 37.4394 19.6691 37.4887 19.6636C39.5879 19.7408 41.276 21.4346 41.3527 23.5477C41.3527 23.5477 41.3911 30.7311 41.4075 30.9242C41.5281 32.3917 42.7119 33.5448 44.1863 33.5945C44.3014 33.5945 44.6028 33.5945 44.822 33.6276C44.8275 33.6276 44.8275 33.6276 44.833 33.6331C46.7458 33.9034 48.2256 35.5145 48.2914 37.5007C48.2914 37.5338 48.2914 37.5613 48.2914 37.6C48.2914 37.6165 48.2914 37.6276 48.2914 37.6441C48.2914 37.6551 48.2914 37.6662 48.2914 37.6772C48.2914 37.8648 48.2749 38.1075 48.2366 38.3613C48.2311 38.4 48.2256 38.4386 48.2146 38.4717C48.2037 38.5158 48.1927 38.5655 48.1818 38.6096C48.1598 38.7034 48.1324 38.7917 48.105 38.8799C48.0941 38.9075 48.0886 38.9406 48.0776 38.9682C47.535 40.5406 46.0607 41.6716 44.3178 41.6827H44.2959C44.2959 41.6827 44.2794 41.6827 44.2739 41.6827C44.2685 41.6827 44.2575 41.6827 44.252 41.6827H44.0218C41.9227 41.5503 40.262 39.8124 40.2565 37.6662L40.2456 37.6551C40.2456 37.5558 40.2236 37.462 40.2182 37.3682H40.2346L40.2182 23.3877C40.0647 21.9201 38.848 20.7726 37.3517 20.7726C35.8555 20.7726 34.6332 21.9201 34.4853 23.3877L34.4688 37.3682H34.4853C34.4743 37.462 34.4578 37.5558 34.4578 37.6551C34.4578 39.2662 35.7568 40.5682 37.3572 40.5682C37.4065 40.5682 37.4558 40.5572 37.5052 40.5517C39.5385 40.6289 41.1937 42.2234 41.3636 44.2482L41.413 44.8164C41.5281 46.3226 42.7612 47.5088 44.2794 47.5088C45.7976 47.5088 46.9979 46.3613 47.1459 44.8937C47.1623 44.7337 47.1678 44.5737 47.1733 44.4799C47.1733 44.4744 47.1733 44.4689 47.1733 44.4578C47.1733 44.4468 47.1733 44.4358 47.1733 44.4247C47.1733 44.4082 47.1733 44.3916 47.1733 44.3916C47.2829 42.3061 48.9545 40.6399 51.0318 40.5627C51.0318 40.5627 51.103 40.5627 51.2236 40.5461C51.3551 40.5351 51.4867 40.5186 51.6127 40.4965C51.6346 40.4965 51.6566 40.491 51.6785 40.4854C51.8484 40.4579 52.0128 40.4137 52.1663 40.3586C53.2844 39.9558 54.0846 38.8855 54.0846 37.622C54.0846 36.011 52.7856 34.709 51.1852 34.709L51.2017 34.7255Z" fill="#3E7578"/>
<path d="M37.3517 59.9437C36.5679 59.9437 35.9321 59.3037 35.9321 58.5203C35.9321 57.7368 36.5679 57.0913 37.3517 57.0913C38.1354 57.0913 38.7657 57.7313 38.7657 58.5203C38.7657 59.3092 38.1299 59.9437 37.3517 59.9437Z" fill="white"/>
<path d="M83.4707 24.2561H91.8751L104.146 58.0318H95.8425L93.2835 50.2852H81.464L78.8957 58.0318H70.9517L83.4799 24.2561H83.4707ZM91.47 44.3547L87.4013 31.595L83.2314 44.3547H91.4792H91.47Z" fill="white"/>
<path d="M106.806 24.2561H119.38C121.46 24.2561 123.219 24.5063 124.664 24.9881C126.109 25.4793 127.278 26.1279 128.189 26.9341C129.091 27.7402 129.745 28.6854 130.15 29.7418C130.555 30.8074 130.748 31.9101 130.748 33.0591C130.748 34.1433 130.555 35.0977 130.168 35.9224C129.782 36.7471 129.331 37.4606 128.815 38.0536C128.3 38.6467 127.747 39.11 127.158 39.4436C126.569 39.7772 126.072 39.9996 125.676 40.1015C126.284 40.2405 126.974 40.4814 127.766 40.8335C128.558 41.1857 129.303 41.6953 130.003 42.3532C130.702 43.0111 131.301 43.8358 131.789 44.8366C132.276 45.8281 132.516 47.0049 132.516 48.3578C132.516 50.1091 132.203 51.601 131.586 52.8149C130.969 54.0288 130.095 55.0295 128.972 55.7986C127.849 56.577 126.477 57.1423 124.848 57.4944C123.219 57.8465 121.405 58.0318 119.389 58.0318H106.815V24.2561H106.806ZM118.671 37.7757C119.242 37.7757 119.803 37.7108 120.356 37.5718C120.908 37.4421 121.396 37.2289 121.81 36.9417C122.234 36.6544 122.574 36.2652 122.841 35.7741C123.108 35.283 123.246 34.6807 123.246 33.9765C123.246 33.2722 123.108 32.6236 122.841 32.1325C122.574 31.6414 122.224 31.2522 121.783 30.9649C121.341 30.6777 120.853 30.4738 120.3 30.3626C119.748 30.2421 119.205 30.1865 118.671 30.1865H114.197V37.7849H118.671V37.7757ZM119.122 52.157C119.656 52.157 120.264 52.1106 120.936 52.0272C121.608 51.9438 122.224 51.7493 122.795 51.4435C123.366 51.1377 123.844 50.7022 124.231 50.1277C124.618 49.5531 124.811 48.7655 124.811 47.7462C124.811 46.8381 124.627 46.0968 124.259 45.5223C123.891 44.9478 123.421 44.503 122.85 44.1787C122.28 43.8544 121.663 43.6412 120.991 43.5208C120.319 43.4003 119.702 43.3447 119.131 43.3447H114.197V52.157H119.131H119.122Z" fill="white"/>
<path d="M136.686 24.2558H159.625V30.9369H144.29V37.5159H156.21V43.9931H144.29V51.2857H160.739V58.0223H136.695V24.2466L136.686 24.2558Z" fill="white"/>
<path d="M193.473 51.7955C192.773 52.7778 191.917 53.6951 190.914 54.5569C189.91 55.4187 188.796 56.1692 187.572 56.8086C186.348 57.448 185.022 57.9576 183.595 58.3283C182.169 58.6989 180.687 58.8843 179.149 58.8843C176.6 58.8843 174.271 58.4488 172.153 57.5685C170.036 56.6882 168.223 55.465 166.695 53.899C165.167 52.333 163.988 50.4705 163.151 48.3299C162.313 46.1894 161.89 43.8358 161.89 41.269C161.89 38.7022 162.313 36.432 163.151 34.2544C163.988 32.0768 165.176 30.1865 166.695 28.5834C168.223 26.9804 170.045 25.7109 172.181 24.7842C174.307 23.8576 176.664 23.3943 179.251 23.3943C182.371 23.3943 185.096 23.9688 187.425 25.1178C189.754 26.2668 191.696 27.9163 193.233 30.0753L188.051 35.0884C187.047 33.6706 185.851 32.5309 184.479 31.6691C183.108 30.8073 181.46 30.3811 179.554 30.3811C178.045 30.3811 176.692 30.6591 175.477 31.2151C174.271 31.771 173.249 32.5401 172.411 33.5224C171.574 34.5046 170.929 35.6444 170.478 36.9416C170.027 38.2389 169.797 39.6196 169.797 41.0651C169.797 42.5107 170.027 43.9377 170.478 45.2165C170.929 46.5045 171.574 47.6164 172.411 48.5616C173.249 49.5068 174.252 50.2481 175.43 50.7948C176.6 51.3322 177.925 51.6009 179.398 51.6009C180.604 51.6009 181.653 51.4712 182.546 51.221C183.43 50.9708 184.221 50.628 184.912 50.211C185.593 49.7847 186.21 49.3029 186.744 48.7377C187.278 48.1817 187.802 47.6164 188.299 47.0419L193.482 51.8048L193.473 51.7955Z" fill="white"/>
<path d="M196.436 24.2558H219.375V30.9369H204.04V37.5159H215.96V43.9931H204.04V51.2857H220.489V58.0223H196.445V24.2466L196.436 24.2558Z" fill="white"/>
<path d="M224.604 24.2561H237.178C239.259 24.2561 241.017 24.5063 242.462 24.9881C243.907 25.4793 245.076 26.1279 245.988 26.9341C246.89 27.7402 247.543 28.6854 247.948 29.7418C248.353 30.8074 248.556 31.9101 248.556 33.0591C248.556 34.1433 248.363 35.0977 247.976 35.9224C247.589 36.7471 247.138 37.4606 246.614 38.0536C246.098 38.6467 245.537 39.11 244.957 39.4436C244.368 39.7772 243.87 39.9996 243.475 40.1015C244.082 40.2405 244.773 40.4814 245.564 40.8335C246.356 41.1857 247.102 41.6953 247.801 42.3532C248.501 43.0111 249.099 43.8358 249.587 44.8366C250.075 45.8281 250.314 47.0049 250.314 48.3578C250.314 50.1091 250.001 51.601 249.384 52.8149C248.758 54.0288 247.893 55.0295 246.77 55.7986C245.647 56.577 244.266 57.1423 242.646 57.4944C241.017 57.8465 239.203 58.0318 237.188 58.0318H224.613V24.2561H224.604ZM236.47 37.7757C237.04 37.7757 237.602 37.7108 238.154 37.5718C238.706 37.4421 239.194 37.2289 239.608 36.9417C240.023 36.6544 240.373 36.2652 240.639 35.7741C240.906 35.283 241.044 34.6807 241.044 33.9765C241.044 33.2722 240.906 32.6236 240.639 32.1325C240.373 31.6414 240.023 31.2522 239.581 30.9649C239.148 30.6777 238.651 30.4738 238.099 30.3626C237.547 30.2421 237.003 30.1865 236.47 30.1865H231.996V37.7849H236.47V37.7757ZM236.921 52.157C237.454 52.157 238.062 52.1106 238.734 52.0272C239.406 51.9438 240.023 51.7493 240.593 51.4435C241.164 51.1377 241.643 50.7022 242.029 50.1277C242.416 49.5531 242.609 48.7655 242.609 47.7462C242.609 46.8381 242.425 46.0968 242.057 45.5223C241.689 44.9478 241.219 44.503 240.649 44.1787C240.078 43.8544 239.461 43.6412 238.789 43.5208C238.117 43.4003 237.5 43.3447 236.93 43.3447H231.996V52.157H236.93H236.921Z" fill="white"/>
</svg>
