<svg width="64" height="64" viewBox="0 0 64 64" fill="none" xmlns="http://www.w3.org/2000/svg">
<path d="M49.4395 0C45.5087 0 42.0208 1.57649 39.391 4.09335L37.7301 5.58686C33.3564 8.7675 30.8651 8.82282 26.5467 5.80813L26.1038 5.44858L24.692 4.14866C22.0623 1.63181 18.5744 0 14.6159 0C6.53287 0 0 6.55488 0 14.6309C0 18.9456 1.91003 22.7623 4.87197 25.4451L6.0346 26.6897C8.85813 30.7277 8.85813 33.2169 6.0346 37.255L4.59516 38.8591C1.79931 41.5419 0 45.2204 0 49.3967C0 57.4728 6.56055 64 14.6159 64C22.6713 64 29.2595 57.4728 29.2595 49.3967C29.2595 45.4693 27.6817 41.9845 25.1626 39.357L23.6401 37.6975C20.4567 33.3276 20.4014 30.8384 23.4187 26.5238L23.7785 26.0812L25.0796 24.6707L26.6851 23.2048C30.7266 20.3838 33.218 20.3838 37.2595 23.2048L38.865 24.643C41.5225 27.4365 45.2318 29.2342 49.3841 29.2342C57.4671 29.2342 64 22.6793 64 14.6309C64 6.58254 57.4671 0 49.3841 0H49.4395Z" fill="#93C01F"/>
</svg>
