<svg width="63" height="64" viewBox="0 0 63 64" fill="none" xmlns="http://www.w3.org/2000/svg">
<path d="M28.3077 14.1405C28.3077 21.9606 21.9814 28.3077 14.1539 28.3077C6.32634 28.3077 0 21.9606 0 14.1405C0 6.32036 6.35315 0 14.1539 0C21.9546 0 28.3077 6.34714 28.3077 14.1405Z" fill="#93C01F"/>
<path d="M48.3926 35.6923C44.2152 35.6923 40.5261 37.4866 37.922 40.2986L36.5657 41.5306C32.6053 44.2622 30.164 44.2622 26.2036 41.5306L24.6303 40.1379C22.0262 37.433 18.3914 35.6923 14.3225 35.6923C6.40171 35.6923 0 42.0394 0 49.8327C0 57.6261 6.40171 64 14.3225 64C18.1743 64 21.5922 62.4735 24.1692 60.0364L25.7967 58.5902C30.0826 55.5103 32.5239 55.4568 36.7556 58.3759L37.1896 58.7241L38.573 59.9828C41.15 62.4199 44.5678 64 48.4468 64C56.3676 64 62.7693 57.6529 62.7693 49.8327C62.7693 42.0126 56.3404 35.6923 48.4468 35.6923H48.3926Z" fill="#93C01F"/>
</svg>
