<svg width="27" height="47" viewBox="0 0 27 47" fill="none" xmlns="http://www.w3.org/2000/svg">
<path d="M1.13905 20.7181L20.3929 1.15091C20.7519 0.786027 21.1781 0.496587 21.6473 0.299113C22.1164 0.10164 22.6191 0 23.1269 0C24.1524 0 25.1358 0.413995 25.8609 1.15091C26.22 1.51579 26.5048 1.94897 26.6991 2.42572C26.8934 2.90246 26.9934 3.41343 26.9934 3.92945C26.9934 4.97161 26.5861 5.97108 25.8609 6.708L9.30267 23.4967L25.8609 40.2853C26.2219 40.6491 26.5083 41.082 26.7038 41.5589C26.8993 42.0357 27 42.5472 27 43.0639C27 43.5805 26.8993 44.092 26.7038 44.5689C26.5083 45.0458 26.2219 45.4786 25.8609 45.8424C25.503 46.2092 25.0771 46.5004 24.6078 46.699C24.1386 46.8977 23.6353 47 23.1269 47C22.6186 47 22.1152 46.8977 21.646 46.699C21.1767 46.5004 20.7508 46.2092 20.3929 45.8424L1.13905 26.2752C0.778126 25.9114 0.491644 25.4786 0.296146 25.0017C0.100649 24.5248 0 24.0133 0 23.4967C0 22.98 0.100649 22.4685 0.296146 21.9916C0.491644 21.5148 0.778126 21.0819 1.13905 20.7181Z" fill="#93C01F"/>
</svg>
