<svg width="27" height="47" viewBox="0 0 27 47" fill="none" xmlns="http://www.w3.org/2000/svg">
<path d="M25.8609 20.7181L6.60713 1.15091C6.24809 0.786027 5.82186 0.496587 5.35275 0.299113C4.88364 0.10164 4.38085 0 3.87309 0C2.84763 0 1.86416 0.413995 1.13905 1.15091C0.780011 1.51579 0.495204 1.94897 0.300893 2.42572C0.106583 2.90246 0.00657373 3.41343 0.00657373 3.92945C0.00657373 4.97161 0.413937 5.97108 1.13905 6.708L17.6973 23.4967L1.13905 40.2853C0.778124 40.6491 0.49165 41.082 0.296152 41.5589C0.100654 42.0357 0 42.5472 0 43.0639C0 43.5805 0.100654 44.092 0.296152 44.5689C0.49165 45.0458 0.778124 45.4786 1.13905 45.8424C1.49703 46.2092 1.92292 46.5004 2.39218 46.699C2.86143 46.8977 3.36475 47 3.87309 47C4.38144 47 4.88476 46.8977 5.35401 46.699C5.82326 46.5004 6.24915 46.2092 6.60713 45.8424L25.8609 26.2752C26.2219 25.9114 26.5084 25.4786 26.7039 25.0017C26.8994 24.5248 27 24.0133 27 23.4967C27 22.98 26.8994 22.4685 26.7039 21.9916C26.5084 21.5148 26.2219 21.0819 25.8609 20.7181Z" fill="#93C01F"/>
</svg>
