<svg width="42" height="42" viewBox="0 0 42 42" fill="none" xmlns="http://www.w3.org/2000/svg">
<path d="M11.6667 37.3333C9.81015 37.3333 8.02967 36.5958 6.71692 35.2831C5.40416 33.9703 4.66667 32.1898 4.66667 30.3333V11.6667C4.66667 9.81015 5.40416 8.02967 6.71692 6.71692C8.02967 5.40416 9.81015 4.66667 11.6667 4.66667C12.2855 4.66667 12.879 4.42083 13.3166 3.98325C13.7542 3.54566 14 2.95217 14 2.33333C14 1.71449 13.7542 1.121 13.3166 0.683417C12.879 0.245833 12.2855 0 11.6667 0C8.57247 0 5.60501 1.22916 3.41709 3.41709C1.22916 5.60501 0 8.57247 0 11.6667V30.3333C0 33.4275 1.22916 36.395 3.41709 38.5829C5.60501 40.7708 8.57247 42 11.6667 42C12.2855 42 12.879 41.7542 13.3166 41.3166C13.7542 40.879 14 40.2855 14 39.6667C14 39.0478 13.7542 38.4543 13.3166 38.0167C12.879 37.5792 12.2855 37.3333 11.6667 37.3333ZM29.6567 29.6567C29.8754 29.4398 30.049 29.1817 30.1674 28.8973C30.2859 28.613 30.3469 28.308 30.3469 28C30.3469 27.692 30.2859 27.387 30.1674 27.1027C30.049 26.8183 29.8754 26.5602 29.6567 26.3433L24.29 21L29.6567 15.6567C30.096 15.2173 30.3429 14.6214 30.3429 14C30.3429 13.3786 30.096 12.7827 29.6567 12.3433C29.2173 11.904 28.6214 11.6571 28 11.6571C27.3786 11.6571 26.7827 11.904 26.3433 12.3433L21 17.71L15.6567 12.3433C15.2173 11.904 14.6214 11.6571 14 11.6571C13.3786 11.6571 12.7827 11.904 12.3433 12.3433C11.904 12.7827 11.6571 13.3786 11.6571 14C11.6571 14.6214 11.904 15.2173 12.3433 15.6567L17.71 21L12.3433 26.3433C12.1246 26.5602 11.951 26.8183 11.8326 27.1027C11.7141 27.387 11.6531 27.692 11.6531 28C11.6531 28.308 11.7141 28.613 11.8326 28.8973C11.951 29.1817 12.1246 29.4398 12.3433 29.6567C12.5602 29.8754 12.8183 30.049 13.1027 30.1674C13.387 30.2859 13.692 30.3469 14 30.3469C14.308 30.3469 14.613 30.2859 14.8973 30.1674C15.1817 30.049 15.4398 29.8754 15.6567 29.6567L21 24.29L26.3433 29.6567C26.5602 29.8754 26.8183 30.049 27.1027 30.1674C27.387 30.2859 27.692 30.3469 28 30.3469C28.308 30.3469 28.613 30.2859 28.8973 30.1674C29.1817 30.049 29.4398 29.8754 29.6567 29.6567ZM30.3333 0C29.7145 0 29.121 0.245833 28.6834 0.683417C28.2458 1.121 28 1.71449 28 2.33333C28 2.95217 28.2458 3.54566 28.6834 3.98325C29.121 4.42083 29.7145 4.66667 30.3333 4.66667C32.1898 4.66667 33.9703 5.40416 35.2831 6.71692C36.5958 8.02967 37.3333 9.81015 37.3333 11.6667V30.3333C37.3333 32.1898 36.5958 33.9703 35.2831 35.2831C33.9703 36.5958 32.1898 37.3333 30.3333 37.3333C29.7145 37.3333 29.121 37.5792 28.6834 38.0167C28.2458 38.4543 28 39.0478 28 39.6667C28 40.2855 28.2458 40.879 28.6834 41.3166C29.121 41.7542 29.7145 42 30.3333 42C33.4275 42 36.395 40.7708 38.5829 38.5829C40.7708 36.395 42 33.4275 42 30.3333V11.6667C42 8.57247 40.7708 5.60501 38.5829 3.41709C36.395 1.22916 33.4275 0 30.3333 0Z" fill="#93C01F"/>
</svg>
