<svg width="191" height="190" viewBox="0 0 191 190" fill="none" xmlns="http://www.w3.org/2000/svg">
<path opacity="0.4" d="M95.6344 0C83.1108 0 70.7098 2.45714 59.1396 7.23112C47.5693 12.0051 37.0563 19.0024 28.2007 27.8236C10.3162 45.6388 0.268801 69.8013 0.268801 94.9958C0.185431 116.932 7.81024 138.205 21.8214 155.128L2.74831 174.127C1.42504 175.463 0.528635 177.16 0.172215 179.002C-0.184206 180.845 0.0153243 182.752 0.745629 184.482C1.53771 186.191 2.82178 187.627 4.43482 188.608C6.04786 189.589 7.91713 190.071 9.80536 189.992H95.6344C120.927 189.992 145.184 179.983 163.068 162.168C180.953 144.353 191 120.19 191 94.9958C191 69.8013 180.953 45.6388 163.068 27.8236C145.184 10.0085 120.927 0 95.6344 0ZM95.6344 170.992H32.7885L41.6575 162.158C43.4337 160.378 44.4306 157.97 44.4306 155.461C44.4306 152.951 43.4337 150.543 41.6575 148.763C29.1702 136.338 21.3939 119.985 19.6537 102.489C17.9134 84.9932 22.3168 67.4376 32.1135 52.8131C41.9103 38.1887 56.4944 27.4002 73.381 22.2858C90.2676 17.1713 108.412 18.0473 124.723 24.7646C141.034 31.4818 154.502 43.6247 162.833 59.1243C171.164 74.624 173.842 92.5216 170.412 109.768C166.981 127.014 157.654 142.542 144.019 153.705C130.383 164.869 113.284 170.979 95.6344 170.992Z" fill="#3E7578"/>
</svg>
