<svg width="190" height="190" viewBox="0 0 190 190" fill="none" xmlns="http://www.w3.org/2000/svg">
<path opacity="0.4" d="M94.8663 0C107.324 0 119.66 2.45714 131.17 7.23112C142.68 12.0051 153.138 19.0024 161.947 27.8236C179.738 45.6388 189.733 69.8013 189.733 94.9958C189.816 116.932 182.231 138.205 168.293 155.128L187.266 174.127C188.582 175.463 189.474 177.16 189.829 179.002C190.183 180.845 189.985 182.752 189.258 184.482C188.47 186.191 187.193 187.627 185.588 188.608C183.984 189.589 182.124 190.071 180.246 189.992H94.8663C69.7062 189.992 45.5766 179.983 27.7857 162.168C9.99481 144.353 0 120.19 0 94.9958C0 69.8013 9.99481 45.6388 27.7857 27.8236C45.5766 10.0085 69.7062 0 94.8663 0ZM94.8663 170.992H157.383L148.561 162.158C146.794 160.378 145.802 157.97 145.802 155.461C145.802 152.951 146.794 150.543 148.561 148.763C160.983 136.338 168.718 119.985 170.449 102.489C172.18 84.9932 167.8 67.4376 158.055 52.8131C148.309 38.1887 133.801 27.4002 117.003 22.2858C100.205 17.1713 82.1556 18.0473 65.93 24.7646C49.7045 31.4818 36.3067 43.6247 28.0193 59.1243C19.7319 74.624 17.0677 92.5216 20.4804 109.768C23.8932 127.014 33.1718 142.542 46.7355 153.705C60.2992 164.869 77.3088 170.979 94.8663 170.992Z" fill="#65B3AD"/>
</svg>
