<svg width="42" height="25" viewBox="0 0 42 25" fill="none" xmlns="http://www.w3.org/2000/svg">
<path d="M6.3 4.16667H35.7C36.257 4.16667 36.7911 3.94717 37.1849 3.55647C37.5788 3.16577 37.8 2.63587 37.8 2.08333C37.8 1.5308 37.5788 1.0009 37.1849 0.610195C36.7911 0.219494 36.257 0 35.7 0H6.3C5.74304 0 5.2089 0.219494 4.81508 0.610195C4.42125 1.0009 4.2 1.5308 4.2 2.08333C4.2 2.63587 4.42125 3.16577 4.81508 3.55647C5.2089 3.94717 5.74304 4.16667 6.3 4.16667ZM39.9 10.4167H2.1C1.54305 10.4167 1.0089 10.6362 0.615076 11.0269C0.221249 11.4176 0 11.9475 0 12.5C0 13.0525 0.221249 13.5824 0.615076 13.9731C1.0089 14.3638 1.54305 14.5833 2.1 14.5833H39.9C40.457 14.5833 40.9911 14.3638 41.3849 13.9731C41.7788 13.5824 42 13.0525 42 12.5C42 11.9475 41.7788 11.4176 41.3849 11.0269C40.9911 10.6362 40.457 10.4167 39.9 10.4167ZM35.7 20.8333H6.3C5.74304 20.8333 5.2089 21.0528 4.81508 21.4435C4.42125 21.8342 4.2 22.3641 4.2 22.9167C4.2 23.4692 4.42125 23.9991 4.81508 24.3898C5.2089 24.7805 5.74304 25 6.3 25H35.7C36.257 25 36.7911 24.7805 37.1849 24.3898C37.5788 23.9991 37.8 23.4692 37.8 22.9167C37.8 22.3641 37.5788 21.8342 37.1849 21.4435C36.7911 21.0528 36.257 20.8333 35.7 20.8333Z" fill="#93C01F"/>
</svg>
