<svg width="30" height="30" viewBox="0 0 30 30" fill="none" xmlns="http://www.w3.org/2000/svg">
<path d="M26.6667 0C27.5507 0 28.3986 0.34785 29.0237 0.967026C29.6488 1.5862 30 2.42599 30 3.30163V26.4131C30 27.2887 29.6488 28.1285 29.0237 28.7477C28.3986 29.3668 27.5507 29.7147 26.6667 29.7147H3.33333C2.44928 29.7147 1.60143 29.3668 0.976311 28.7477C0.351189 28.1285 0 27.2887 0 26.4131V3.30163C0 2.42599 0.351189 1.5862 0.976311 0.967026C1.60143 0.34785 2.44928 0 3.33333 0H26.6667ZM25.8333 25.5877V16.8383C25.8333 15.411 25.2609 14.0422 24.2419 13.0329C23.223 12.0237 21.841 11.4567 20.4 11.4567C18.9833 11.4567 17.3333 12.3151 16.5333 13.6027V11.7703H11.8833V25.5877H16.5333V17.4491C16.5333 16.178 17.5667 15.138 18.85 15.138C19.4688 15.138 20.0623 15.3815 20.4999 15.8149C20.9375 16.2483 21.1833 16.8362 21.1833 17.4491V25.5877H25.8333ZM6.46667 9.17854C7.20927 9.17854 7.92146 8.88635 8.44657 8.36624C8.97167 7.84613 9.26667 7.14071 9.26667 6.40517C9.26667 4.86991 8.01667 3.61529 6.46667 3.61529C5.71964 3.61529 5.00321 3.90922 4.47498 4.43243C3.94675 4.95563 3.65 5.66525 3.65 6.40517C3.65 7.94043 4.91667 9.17854 6.46667 9.17854ZM8.78333 25.5877V11.7703H4.16667V25.5877H8.78333Z" fill="#29323C"/>
</svg>
