<svg width="100%" height="595" viewBox="0 0 803 695" fill="none">
                            <g opacity="0.3">
                            <path d="M111.647 153.695C111.647 164.683 102.788 173.601 91.8258 173.601C80.8639 173.601 71.9668 164.683 71.9668 153.695C71.9668 142.708 80.8264 133.827 91.7883 133.827C102.75 133.827 111.61 142.745 111.61 153.695H111.647Z" fill="#6DB3AE"></path>
                            <path d="M159.369 200.884C159.369 211.872 150.51 220.752 139.548 220.752C128.586 220.752 119.727 211.872 119.727 200.884C119.727 189.896 128.586 181.015 139.548 181.015C150.51 181.015 159.369 189.934 159.369 200.884Z" fill="#6DB3AE"></path>
                            <path d="M186.771 220.752C197.718 220.752 206.592 211.857 206.592 200.884C206.592 189.911 197.718 181.015 186.771 181.015C175.824 181.015 166.949 189.911 166.949 200.884C166.949 211.857 175.824 220.752 186.771 220.752Z" fill="#6DB3AE"></path>
                            <path d="M159.369 248.217C159.369 259.205 150.51 268.085 139.548 268.085C128.586 268.085 119.727 259.205 119.727 248.217C119.727 237.229 128.586 228.349 139.548 228.349C150.51 228.349 159.369 237.229 159.369 248.217Z" fill="#6DB3AE"></path>
                            <path d="M206.989 247.806C206.989 258.793 198.091 267.674 187.167 267.674C176.243 267.674 167.346 258.793 167.346 247.806C167.346 236.818 176.205 227.937 187.167 227.937C198.129 227.937 206.989 236.818 206.989 247.806Z" fill="#283848"></path>
                            <path d="M300.44 248.217C300.44 259.205 291.543 268.085 280.618 268.085C269.694 268.085 260.797 259.205 260.797 248.217C260.797 237.229 269.656 228.349 280.618 228.349C291.58 228.349 300.44 237.229 300.44 248.217Z" fill="#283848"></path>
                            <path d="M395.071 248.217C395.071 259.205 386.174 268.085 375.212 268.085C364.25 268.085 355.391 259.205 355.391 248.217C355.391 237.229 364.25 228.349 375.212 228.349C386.174 228.349 395.071 237.229 395.071 248.217Z" fill="#6DB3AE"></path>
                            <path d="M253.215 295.481C253.215 306.469 244.356 315.387 233.394 315.387C222.432 315.387 213.572 306.469 213.572 295.481C213.572 284.493 222.469 275.613 233.394 275.613C244.318 275.613 253.215 284.531 253.215 295.481Z" fill="#283848"></path>
                            <path d="M300.44 295.481C300.44 306.469 291.543 315.387 280.618 315.387C269.694 315.387 260.797 306.469 260.797 295.481C260.797 284.493 269.656 275.613 280.618 275.613C291.58 275.613 300.44 284.531 300.44 295.481Z" fill="#6DB3AE"></path>
                            <path d="M186.21 363.102C197.157 363.102 206.032 354.206 206.032 343.233C206.032 332.26 197.157 323.365 186.21 323.365C175.263 323.365 166.389 332.26 166.389 343.233C166.389 354.206 175.263 363.102 186.21 363.102Z" fill="#6DB3AE"></path>
                            <path d="M253.215 343.233C253.215 354.221 244.356 363.102 233.394 363.102C222.432 363.102 213.572 354.221 213.572 343.233C213.572 332.246 222.469 323.365 233.394 323.365C244.318 323.365 253.215 332.246 253.215 343.233Z" fill="#6DB3AE"></path>
                            <path d="M300.44 343.233C300.44 354.221 291.543 363.102 280.618 363.102C269.694 363.102 260.797 354.221 260.797 343.233C260.797 332.246 269.656 323.365 280.618 323.365C291.58 323.365 300.44 332.246 300.44 343.233Z" fill="#283848"></path>
                            <path d="M442.647 343.233C442.647 354.221 433.787 363.102 422.825 363.102C411.863 363.102 403.004 354.221 403.004 343.233C403.004 332.246 411.901 323.365 422.825 323.365C433.75 323.365 442.647 332.246 442.647 343.233Z" fill="#3E7578"></path>
                            <path d="M469.927 363.102C480.874 363.102 489.748 354.206 489.748 343.233C489.748 332.26 480.874 323.365 469.927 323.365C458.98 323.365 450.105 332.26 450.105 343.233C450.105 354.206 458.98 363.102 469.927 363.102Z" fill="#3E7578"></path>
                            <path d="M253.215 390.766C253.215 401.754 244.356 410.635 233.394 410.635C222.432 410.635 213.572 401.754 213.572 390.766C213.572 379.779 222.469 370.898 233.394 370.898C244.318 370.898 253.215 379.779 253.215 390.766Z" fill="#6DB3AE"></path>
                            <path d="M395.071 390.766C395.071 401.754 386.174 410.635 375.212 410.635C364.25 410.635 355.391 401.754 355.391 390.766C355.391 379.779 364.25 370.898 375.212 370.898C386.174 370.898 395.071 379.779 395.071 390.766Z" fill="#283848"></path>
                            <path d="M253.215 438.094C253.215 449.082 244.356 458 233.394 458C222.432 458 213.572 449.082 213.572 438.094C213.572 427.106 222.469 418.225 233.394 418.225C244.318 418.225 253.215 427.144 253.215 438.094Z" fill="#6DB3AE"></path>
                            <path d="M347.634 438.094C347.634 449.082 338.736 458 327.812 458C316.888 458 307.953 449.082 307.953 438.094C307.953 427.106 316.85 418.225 327.812 418.225C338.774 418.225 347.634 427.144 347.634 438.094Z" fill="#283848"></path>
                            <path d="M442.647 438.094C442.647 449.082 433.787 458 422.825 458C411.863 458 403.004 449.082 403.004 438.094C403.004 427.106 411.901 418.225 422.825 418.225C433.75 418.225 442.647 427.144 442.647 438.094Z" fill="#3E7578"></path>
                            <path d="M253.215 485.588C253.215 496.576 244.356 505.494 233.394 505.494C222.432 505.494 213.572 496.576 213.572 485.588C213.572 474.601 222.469 465.72 233.394 465.72C244.318 465.72 253.215 474.601 253.215 485.588Z" fill="#93C01F"></path>
                            <path d="M253.215 532.965C253.215 543.915 244.356 552.833 233.394 552.833C222.432 552.833 213.572 543.953 213.572 532.965C213.572 521.977 222.469 513.059 233.394 513.059C244.318 513.059 253.215 521.939 253.215 532.965Z" fill="#93C01F"></path>
                            <path d="M300.44 532.965C300.44 543.915 291.543 552.833 280.618 552.833C269.694 552.833 260.797 543.953 260.797 532.965C260.797 521.977 269.656 513.059 280.618 513.059C291.58 513.059 300.44 521.939 300.44 532.965Z" fill="#93C01F"></path>
                            <path d="M327.695 513.025C327.394 513.025 327.132 513.1 326.831 513.1C312.04 512.648 300.215 500.569 300.177 485.63L300.403 390.955C300.403 390.955 300.403 390.804 300.403 390.766C300.403 379.779 291.506 370.898 280.581 370.898C269.657 370.898 260.985 379.59 260.797 390.39L260.422 484.614H260.534C260.534 484.953 260.422 485.254 260.422 485.593C260.422 496.581 269.319 505.461 280.281 505.461C280.619 505.461 280.957 505.386 281.294 505.348C296.01 505.875 307.836 517.992 307.836 532.893C307.836 532.968 307.836 533.081 307.836 533.156L307.911 533.232C308.099 544.069 316.845 552.799 327.695 552.799C338.544 552.799 347.554 543.881 347.554 532.893C347.554 521.905 338.657 513.025 327.695 513.025Z" fill="#93C01F"></path>
                            <path d="M186.205 275.613C180.424 275.613 175.318 278.134 171.714 282.085L169.837 283.816C164.356 287.654 160.978 287.654 155.497 283.816L153.319 281.859C149.715 278.059 144.685 275.613 139.054 275.613C128.092 275.613 119.232 284.531 119.232 295.481C119.232 306.431 128.092 315.387 139.054 315.387C144.385 315.387 149.115 313.242 152.681 309.818L154.934 307.786C160.865 303.459 164.244 303.383 170.1 307.485L170.701 307.974L172.615 309.743C176.182 313.167 180.912 315.387 186.28 315.387C197.242 315.387 206.101 306.469 206.101 295.481C206.101 284.493 197.204 275.613 186.28 275.613H186.205Z" fill="#3E7578"></path>
                            <path d="M280.622 181.015C275.291 181.015 270.561 183.16 266.995 186.585L264.742 188.617C258.811 192.944 255.432 193.019 249.576 188.918L248.975 188.428L247.06 186.66C243.494 183.236 238.764 181.015 233.396 181.015C222.434 181.015 213.574 189.934 213.574 200.921C213.574 206.792 216.165 211.984 220.181 215.635L221.758 217.328C225.587 222.822 225.587 226.208 221.758 231.702L219.806 233.885C216.014 237.535 213.574 242.54 213.574 248.222C213.574 259.209 222.471 268.09 233.396 268.09C244.32 268.09 253.255 259.209 253.255 248.222C253.255 242.878 251.115 238.137 247.699 234.562L245.634 232.304C241.317 226.359 241.242 222.972 245.334 217.102L245.822 216.5L247.586 214.581L249.763 212.587C255.244 208.748 258.623 208.748 264.104 212.587L266.281 214.543C269.885 218.344 274.916 220.79 280.547 220.79C291.509 220.79 300.368 211.872 300.368 200.921C300.368 189.971 291.509 181.015 280.547 181.015H280.622Z" fill="#3E7578"></path>
                            <path d="M-2.93074e-06 65.4227C-2.69773e-06 70.7308 2.15402 75.4409 5.59291 78.9921L7.63356 81.235C11.9794 87.1412 12.055 90.5055 7.93588 96.337L7.44461 96.9351L5.66849 98.8416C2.2296 102.393 -1.10108e-06 107.103 -8.66424e-07 112.448C-3.87265e-07 123.364 8.95621 132.186 19.9909 132.186C25.8861 132.186 31.1011 129.606 34.7667 125.607L36.4673 124.037C41.9846 120.224 45.3857 120.224 50.903 124.037L53.0948 125.98C56.7605 129.756 61.7865 132.186 67.4928 132.186C78.5275 132.186 87.4459 123.326 87.4459 112.448C87.4459 101.57 78.5275 92.6736 67.4928 92.6736C62.1266 92.6736 57.3651 94.8044 53.7751 98.2061L51.5077 100.262C45.5369 104.561 42.1358 104.636 36.2405 100.561L35.6359 100.075L33.7086 98.3182L31.7057 96.1501C27.8512 90.6924 27.8512 87.3281 31.7057 81.8705L33.6708 79.7023C37.4876 76.1137 39.9439 71.1046 39.9439 65.4975C39.9439 54.5821 30.9877 45.7601 19.9909 45.7601C8.994 45.7601 -3.40662e-06 54.5821 -2.92746e-06 65.4975L-2.93074e-06 65.4227Z" fill="#3E7578"></path>
                            <path d="M280.545 560.468C274.764 560.468 269.658 562.989 266.054 566.94L264.177 568.671C258.696 572.51 255.317 572.51 249.837 568.671L247.659 566.715C244.055 562.914 239.025 560.468 233.394 560.468C222.432 560.468 213.572 569.386 213.572 580.336C213.572 591.287 222.432 600.242 233.394 600.242C238.724 600.242 243.455 598.098 247.021 594.673L249.273 592.641C255.205 588.314 258.584 588.239 264.44 592.34L265.04 592.829L266.955 594.598C270.521 598.022 275.252 600.242 280.62 600.242C291.582 600.242 300.441 591.324 300.441 580.336C300.441 569.349 291.544 560.468 280.62 560.468H280.545Z" fill="#93C01F"></path>
                            <path d="M374.992 465.72C369.211 465.72 364.105 468.241 360.501 472.192L358.624 473.923C353.143 477.761 349.765 477.761 344.284 473.923L342.106 471.966C338.503 468.166 333.472 465.72 327.841 465.72C316.879 465.72 308.02 474.638 308.02 485.588C308.02 496.539 316.879 505.494 327.841 505.494C333.172 505.494 337.902 503.349 341.468 499.925L343.721 497.893C349.652 493.566 353.031 493.491 358.887 497.592L359.488 498.081L361.402 499.85C364.969 503.274 369.699 505.494 375.067 505.494C386.029 505.494 394.889 496.576 394.889 485.588C394.889 474.601 385.991 465.72 375.067 465.72H374.992Z" fill="#3E7578"></path>
                            <path d="M470.004 275.613C464.222 275.613 459.117 278.134 455.513 282.085L453.636 283.816C448.155 287.654 444.776 287.654 439.296 283.816L437.118 281.859C433.514 278.059 428.484 275.613 422.853 275.613C411.891 275.613 403.031 284.531 403.031 295.481C403.031 306.431 411.891 315.387 422.853 315.387C428.183 315.387 432.914 313.242 436.48 309.818L438.732 307.786C444.664 303.459 448.042 303.383 453.899 307.485L454.499 307.974L456.414 309.743C459.98 313.167 464.711 315.387 470.079 315.387C481.041 315.387 489.9 306.469 489.9 295.481C489.9 284.493 481.003 275.613 470.079 275.613H470.004Z" fill="#3E7578"></path>
                            <path d="M328.186 410.635H330.626C330.626 410.635 329.913 408.867 329.65 408.791C329.387 408.716 327.473 409.431 327.473 409.431L328.186 410.598V410.635Z" fill="#3E7578"></path>
                            <path d="M253.212 675.094C253.212 669.299 250.697 664.181 246.755 660.569L245.028 658.687C241.199 653.194 241.199 649.807 245.028 644.313L246.98 642.131C250.772 638.48 253.212 633.476 253.212 627.794C253.212 616.806 244.315 607.925 233.39 607.925C222.466 607.925 213.531 616.806 213.531 627.794C213.531 633.137 215.671 637.878 219.087 641.453L221.152 643.711C225.469 649.656 225.544 653.043 221.452 658.913L220.964 659.515L219.2 661.434C215.746 665.009 213.569 669.788 213.569 675.132C213.569 686.119 222.466 695 233.428 695C244.39 695 253.249 686.082 253.249 675.132L253.212 675.094Z" fill="#93C01F"></path>
                            <path d="M422.672 370.669C422.372 370.669 422.109 370.745 421.809 370.745C407.018 370.293 395.193 358.214 395.155 343.275L394.967 295.222C394.78 284.385 385.995 275.655 375.146 275.655C374.846 275.655 374.583 275.73 374.282 275.73C359.491 275.279 347.666 263.2 347.629 248.261L347.554 248.185C347.554 237.198 338.656 228.317 327.732 228.317C316.808 228.317 307.873 237.198 307.873 248.185C307.873 259.173 316.77 268.054 327.732 268.054C328.07 268.054 328.408 267.979 328.746 267.941C343.124 268.468 354.686 280.02 355.212 294.432C355.212 294.432 355.475 343.426 355.587 344.743C356.413 354.752 364.522 362.617 374.62 362.955C375.409 362.955 377.473 362.955 378.975 363.181C379.013 363.181 379.013 363.181 379.05 363.219C392.152 365.063 402.288 376.05 402.738 389.597C402.738 389.823 402.738 390.011 402.738 390.274C402.738 390.387 402.738 390.463 402.738 390.575C402.738 390.651 402.738 390.726 402.738 390.801C402.738 392.081 402.626 393.736 402.363 395.467C402.325 395.731 402.288 395.994 402.213 396.22C402.138 396.521 402.063 396.86 401.987 397.161C401.837 397.8 401.65 398.402 401.462 399.004C401.387 399.193 401.349 399.418 401.274 399.606C397.558 410.331 387.459 418.045 375.521 418.12H375.371C375.371 418.12 375.259 418.12 375.221 418.12C375.183 418.12 375.108 418.12 375.071 418.12H373.494C359.116 417.217 347.741 405.364 347.704 390.726L347.629 390.651C347.629 389.973 347.478 389.334 347.441 388.694H347.554L347.441 293.341C346.39 283.331 338.056 275.504 327.807 275.504C317.559 275.504 309.187 283.331 308.173 293.341L308.061 388.694H308.173C308.098 389.334 307.986 389.973 307.986 390.651C307.986 401.638 316.883 410.519 327.845 410.519C328.183 410.519 328.52 410.444 328.858 410.406C342.786 410.933 354.123 421.808 355.287 435.618L355.625 439.494C356.413 449.767 364.86 457.857 375.259 457.857C385.657 457.857 393.879 450.03 394.892 440.021C395.005 438.929 395.042 437.838 395.08 437.198C395.08 437.161 395.08 437.123 395.08 437.048C395.08 436.973 395.08 436.897 395.08 436.822C395.08 436.709 395.08 436.596 395.08 436.596C395.831 422.372 407.281 411.008 421.509 410.481C421.509 410.481 421.997 410.481 422.823 410.368C423.724 410.293 424.624 410.18 425.488 410.03C425.638 410.03 425.788 409.992 425.938 409.955C427.102 409.766 428.228 409.465 429.28 409.089C436.938 406.342 442.419 399.042 442.419 390.425C442.419 379.437 433.522 370.557 422.56 370.557L422.672 370.669Z" fill="#3E7578"></path>
                            <path d="M327.805 542.668C322.437 542.668 318.082 538.303 318.082 532.96C318.082 527.616 322.437 523.214 327.805 523.214C333.173 523.214 337.491 527.579 337.491 532.96C337.491 538.341 333.136 542.668 327.805 542.668Z" fill="white"></path>
                            </g>

                            <g class="svg-group" id="svg-item-argentinacampeon">
                                <ellipse cx="327.322" cy="532.285" rx="15.1739" ry="15.1095" fill="white"></ellipse>
                                <path fill-rule="evenodd" clip-rule="evenodd" d="M341.631 537.322H313.01C315.093 543.19 320.713 547.395 327.32 547.395C333.927 547.395 339.548 543.19 341.631 537.322ZM341.631 527.249H313.01C315.093 521.38 320.713 517.176 327.32 517.176C333.927 517.176 339.548 521.38 341.631 527.249Z" fill="#6CA8D8"></path>
                                <path d="M331.522 532.421C331.057 531.81 330.257 531.962 329.832 531.587C329.827 531.582 329.823 531.577 329.82 531.57C329.817 531.564 329.815 531.557 329.815 531.55C329.815 531.543 329.817 531.536 329.82 531.53C329.823 531.523 329.827 531.518 329.832 531.513C330.32 531.119 330.458 530.345 331.177 530.189C331.187 530.186 331.196 530.18 331.202 530.172C331.208 530.163 331.212 530.153 331.212 530.143C331.212 530.132 331.208 530.122 331.202 530.114C331.196 530.106 331.187 530.1 331.177 530.097C330.461 529.832 329.865 530.396 329.305 530.312C329.298 530.31 329.291 530.308 329.286 530.304C329.28 530.3 329.275 530.295 329.271 530.289C329.268 530.283 329.265 530.276 329.265 530.269C329.264 530.262 329.264 530.255 329.266 530.249C329.464 529.652 329.164 528.924 329.684 528.404C329.691 528.397 329.696 528.387 329.697 528.377C329.698 528.367 329.696 528.357 329.691 528.348C329.686 528.339 329.678 528.332 329.669 528.328C329.659 528.324 329.649 528.323 329.639 528.325C328.9 528.49 328.702 529.289 328.19 529.522C328.183 529.525 328.177 529.526 328.17 529.526C328.163 529.526 328.156 529.524 328.15 529.521C328.143 529.518 328.138 529.514 328.133 529.509C328.129 529.504 328.125 529.497 328.123 529.491C327.969 528.881 327.323 528.431 327.481 527.712C327.483 527.702 327.481 527.691 327.477 527.682C327.472 527.673 327.465 527.665 327.456 527.66C327.447 527.656 327.436 527.654 327.426 527.656C327.416 527.657 327.407 527.662 327.399 527.67C326.862 528.213 327.126 528.991 326.817 529.467C326.814 529.473 326.809 529.478 326.803 529.482C326.797 529.485 326.79 529.488 326.783 529.489C326.777 529.49 326.77 529.489 326.763 529.487C326.756 529.485 326.75 529.481 326.745 529.477C326.287 529.048 325.502 529.02 325.246 528.329C325.242 528.319 325.235 528.311 325.226 528.306C325.218 528.301 325.207 528.299 325.197 528.3C325.187 528.301 325.177 528.305 325.17 528.312C325.162 528.319 325.157 528.328 325.155 528.338C324.996 529.087 325.637 529.598 325.634 530.166C325.633 530.172 325.632 530.179 325.629 530.185C325.626 530.192 325.621 530.197 325.616 530.201C325.611 530.206 325.605 530.209 325.598 530.211C325.591 530.213 325.585 530.213 325.578 530.212C324.96 530.096 324.286 530.503 323.698 530.061C323.689 530.054 323.679 530.051 323.669 530.051C323.658 530.051 323.648 530.055 323.64 530.062C323.632 530.068 323.626 530.077 323.623 530.087C323.621 530.097 323.622 530.108 323.626 530.118C323.895 530.834 324.711 530.917 325.013 531.395C325.017 531.401 325.019 531.408 325.02 531.415C325.021 531.422 325.021 531.429 325.019 531.435C325.017 531.442 325.014 531.448 325.009 531.453C325.004 531.459 324.999 531.463 324.992 531.465C324.41 531.706 324.061 532.411 323.329 532.356C323.318 532.356 323.308 532.358 323.299 532.364C323.29 532.37 323.283 532.379 323.28 532.389C323.277 532.399 323.276 532.409 323.28 532.419C323.283 532.43 323.29 532.438 323.299 532.444C323.911 532.901 324.641 532.528 325.154 532.766C325.16 532.769 325.166 532.774 325.171 532.779C325.175 532.784 325.179 532.791 325.181 532.797C325.183 532.804 325.183 532.811 325.182 532.818C325.181 532.825 325.178 532.832 325.174 532.838C324.816 533.354 324.901 534.137 324.255 534.489C324.246 534.494 324.239 534.502 324.235 534.511C324.23 534.521 324.229 534.532 324.232 534.542C324.234 534.552 324.24 534.561 324.248 534.568C324.256 534.575 324.266 534.578 324.276 534.579C325.039 534.63 325.452 533.921 326.012 533.843C326.019 533.842 326.026 533.843 326.032 533.845C326.039 533.847 326.045 533.851 326.05 533.855C326.056 533.86 326.06 533.866 326.062 533.872C326.065 533.878 326.067 533.885 326.067 533.892C326.045 534.52 326.532 535.134 326.183 535.779C326.178 535.789 326.176 535.799 326.178 535.81C326.179 535.82 326.184 535.83 326.192 535.837C326.199 535.844 326.209 535.849 326.219 535.85C326.23 535.851 326.24 535.849 326.249 535.844C326.918 535.475 326.883 534.654 327.313 534.285C327.318 534.28 327.325 534.277 327.331 534.275C327.338 534.273 327.345 534.272 327.352 534.273C327.359 534.274 327.365 534.277 327.371 534.28C327.377 534.284 327.382 534.289 327.385 534.295C327.706 534.837 328.451 535.085 328.501 535.82C328.501 535.831 328.505 535.841 328.512 535.849C328.519 535.857 328.529 535.862 328.539 535.864C328.55 535.866 328.56 535.865 328.57 535.86C328.579 535.855 328.587 535.847 328.591 535.838C328.955 535.164 328.483 534.492 328.646 533.948C328.648 533.942 328.651 533.936 328.656 533.93C328.661 533.925 328.666 533.921 328.673 533.918C328.679 533.916 328.686 533.914 328.693 533.914C328.699 533.914 328.706 533.916 328.712 533.919C329.273 534.201 330.034 534.005 330.472 534.596C330.479 534.605 330.487 534.611 330.498 534.614C330.508 534.617 330.519 534.617 330.529 534.613C330.538 534.609 330.547 534.602 330.552 534.593C330.558 534.584 330.56 534.573 330.559 534.563C330.502 533.799 329.744 533.489 329.585 532.944C329.584 532.937 329.583 532.93 329.585 532.923C329.586 532.916 329.588 532.91 329.592 532.904C329.596 532.898 329.601 532.893 329.607 532.889C329.613 532.886 329.619 532.883 329.626 532.882C330.25 532.815 330.79 532.239 331.472 532.498C331.482 532.501 331.493 532.501 331.502 532.497C331.512 532.494 331.52 532.488 331.526 532.479C331.532 532.471 331.535 532.461 331.535 532.45C331.535 532.44 331.532 532.43 331.526 532.422" fill="#FFC60B"></path>
                            </g>
                            
                            <g class="svg-group" id="svg-item-">
                                <ellipse cx="67.1972" cy="111.81" rx="15.1095" ry="15.1739" transform="rotate(90 67.1972 111.81)" fill="white"></ellipse>
                                <path fill-rule="evenodd" clip-rule="evenodd" d="M62.1406 97.8556C56.2468 99.9296 52.024 105.527 52.024 112.106C52.024 118.685 56.2468 124.282 62.1406 126.356L62.1406 97.8556Z" fill="#1C6B50"></path>
                                <path fill-rule="evenodd" clip-rule="evenodd" d="M82.3691 111.958C82.3691 105.38 78.147 99.783 72.2539 97.7086L72.2539 126.208C78.147 124.133 82.3691 118.537 82.3691 111.958Z" fill="#CD2633"></path>
                            </g>
                            
                            
                            <g class="svg-group active" id="svg-item-chile">
                                <ellipse cx="232.811" cy="533.109" rx="15.1739" ry="15.1095" fill="white"></ellipse>
                                <path fill-rule="evenodd" clip-rule="evenodd" d="M217.637 533.109C217.637 533.109 217.637 533.11 217.637 533.11C217.637 541.454 224.43 548.219 232.811 548.219C241.191 548.219 247.985 541.454 247.985 533.11C247.985 533.11 247.985 533.109 247.985 533.109H217.637Z" fill="#D73931"></path>
                                <path fill-rule="evenodd" clip-rule="evenodd" d="M217.637 533.11C217.903 524.718 224.591 518 232.802 518V533.11H217.637Z" fill="#244A98"></path>
                                <path d="M226.74 523.036L227.648 525.821H230.588L228.21 527.541L229.118 530.325L226.74 528.605L224.361 530.325L225.27 527.541L222.891 525.821H225.831L226.74 523.036Z" fill="white"></path>
                            </g>
                            
                            
                            <g class="svg-group" id="svg-item-uruguay">
                                <ellipse cx="374.147" cy="484.798" rx="15.1739" ry="15.1095" fill="white"></ellipse>
                                <path fill-rule="evenodd" clip-rule="evenodd" d="M374.136 469.689L374.138 469.689V483.791H358.971C359.238 475.959 365.925 469.689 374.136 469.689Z" fill="white"></path>
                                <path d="M372.294 478.953C371.77 478.266 370.87 478.437 370.392 478.015C370.386 478.01 370.381 478.004 370.378 477.997C370.375 477.99 370.373 477.982 370.373 477.974C370.373 477.966 370.375 477.958 370.378 477.951C370.381 477.944 370.386 477.937 370.392 477.932C370.941 477.488 371.097 476.619 371.905 476.442C371.916 476.439 371.926 476.433 371.933 476.423C371.94 476.414 371.944 476.402 371.944 476.391C371.944 476.379 371.94 476.367 371.933 476.358C371.926 476.349 371.916 476.342 371.905 476.339C371.099 476.04 370.429 476.675 369.799 476.58C369.791 476.579 369.784 476.576 369.777 476.572C369.771 476.567 369.765 476.562 369.761 476.555C369.757 476.548 369.755 476.541 369.754 476.533C369.753 476.525 369.753 476.517 369.756 476.509C369.978 475.838 369.641 475.019 370.226 474.435C370.234 474.426 370.239 474.416 370.24 474.404C370.241 474.393 370.239 474.381 370.233 474.371C370.228 474.361 370.219 474.353 370.208 474.349C370.198 474.344 370.186 474.343 370.175 474.345C369.343 474.531 369.121 475.429 368.544 475.692C368.537 475.695 368.529 475.697 368.522 475.697C368.514 475.697 368.506 475.695 368.499 475.691C368.492 475.688 368.486 475.683 368.481 475.677C368.476 475.671 368.472 475.664 368.47 475.657C368.296 474.971 367.569 474.465 367.747 473.656C367.749 473.644 367.748 473.632 367.742 473.622C367.737 473.611 367.729 473.603 367.719 473.598C367.708 473.592 367.697 473.59 367.685 473.592C367.674 473.594 367.663 473.6 367.655 473.608C367.05 474.219 367.347 475.094 367 475.63C366.996 475.637 366.991 475.643 366.984 475.647C366.977 475.651 366.97 475.654 366.962 475.655C366.955 475.656 366.947 475.655 366.939 475.653C366.932 475.65 366.925 475.646 366.919 475.641C366.403 475.159 365.521 475.127 365.232 474.349C365.228 474.339 365.22 474.33 365.21 474.324C365.2 474.318 365.189 474.316 365.178 474.317C365.166 474.318 365.155 474.323 365.147 474.331C365.138 474.338 365.133 474.349 365.13 474.36C364.951 475.202 365.672 475.778 365.669 476.416C365.668 476.424 365.666 476.432 365.663 476.438C365.66 476.445 365.655 476.452 365.649 476.457C365.643 476.461 365.636 476.465 365.629 476.467C365.621 476.469 365.613 476.47 365.606 476.469C364.91 476.337 364.152 476.796 363.491 476.298C363.481 476.291 363.47 476.287 363.458 476.288C363.446 476.288 363.435 476.292 363.426 476.299C363.416 476.306 363.41 476.317 363.407 476.328C363.404 476.339 363.405 476.351 363.41 476.362C363.712 477.168 364.63 477.261 364.971 477.8C364.975 477.806 364.978 477.814 364.979 477.821C364.98 477.829 364.979 477.837 364.977 477.845C364.975 477.852 364.971 477.859 364.966 477.865C364.961 477.871 364.954 477.875 364.947 477.879C364.292 478.149 363.899 478.943 363.076 478.881C363.064 478.88 363.052 478.883 363.042 478.89C363.032 478.896 363.024 478.906 363.021 478.917C363.017 478.928 363.017 478.941 363.02 478.952C363.024 478.963 363.032 478.973 363.042 478.98C363.73 479.493 364.551 479.074 365.129 479.342C365.136 479.345 365.143 479.35 365.148 479.356C365.153 479.362 365.157 479.369 365.159 479.377C365.161 479.385 365.162 479.393 365.16 479.401C365.159 479.408 365.156 479.416 365.151 479.422C364.749 480.003 364.845 480.885 364.118 481.28C364.108 481.286 364.099 481.295 364.095 481.306C364.09 481.316 364.089 481.328 364.091 481.34C364.094 481.351 364.1 481.362 364.109 481.369C364.119 481.377 364.13 481.381 364.142 481.381C364.999 481.439 365.464 480.642 366.094 480.554C366.102 480.553 366.11 480.553 366.117 480.556C366.125 480.558 366.132 480.562 366.137 480.567C366.143 480.573 366.148 480.579 366.151 480.586C366.154 480.593 366.156 480.601 366.156 480.609C366.131 481.316 366.68 482.006 366.287 482.732C366.281 482.742 366.279 482.754 366.281 482.766C366.282 482.778 366.288 482.789 366.296 482.797C366.305 482.805 366.316 482.81 366.328 482.812C366.339 482.813 366.351 482.81 366.361 482.804C367.113 482.389 367.074 481.466 367.558 481.05C367.564 481.045 367.571 481.041 367.579 481.039C367.586 481.037 367.594 481.036 367.602 481.037C367.609 481.038 367.617 481.041 367.623 481.046C367.63 481.05 367.635 481.055 367.639 481.062C368 481.672 368.838 481.95 368.894 482.778C368.895 482.79 368.899 482.801 368.907 482.81C368.915 482.819 368.926 482.825 368.938 482.828C368.949 482.83 368.961 482.828 368.972 482.823C368.983 482.817 368.991 482.809 368.996 482.798C369.405 482.04 368.874 481.284 369.058 480.672C369.06 480.664 369.064 480.658 369.069 480.652C369.074 480.646 369.08 480.641 369.088 480.638C369.095 480.635 369.102 480.634 369.11 480.634C369.118 480.634 369.125 480.636 369.132 480.639C369.764 480.956 370.619 480.736 371.113 481.401C371.119 481.411 371.129 481.418 371.141 481.421C371.152 481.425 371.165 481.424 371.176 481.42C371.187 481.416 371.196 481.408 371.202 481.397C371.208 481.387 371.211 481.375 371.209 481.363C371.145 480.504 370.293 480.156 370.115 479.542C370.113 479.534 370.112 479.526 370.114 479.519C370.115 479.511 370.118 479.504 370.122 479.497C370.127 479.49 370.132 479.485 370.139 479.481C370.145 479.476 370.153 479.474 370.16 479.472C370.862 479.397 371.47 478.748 372.237 479.04C372.248 479.043 372.26 479.043 372.271 479.039C372.282 479.036 372.292 479.029 372.298 479.019C372.305 479.01 372.308 478.998 372.308 478.987C372.308 478.975 372.304 478.964 372.298 478.955" fill="#FFC60B"></path>
                                <path fill-rule="evenodd" clip-rule="evenodd" d="M388.055 478.755C388.609 480.017 388.995 481.37 389.184 482.784H359.104C359.293 481.37 359.678 480.017 360.232 478.755H388.055ZM379.603 470.696C381.865 471.565 383.865 472.958 385.454 474.725H362.834C364.422 472.958 366.423 471.565 368.685 470.696H379.603ZM388.055 490.842C388.609 489.58 388.995 488.227 389.184 486.813H359.104C359.293 488.227 359.678 489.58 360.232 490.842H388.055ZM385.454 494.871H362.834C364.422 496.639 366.423 498.032 368.685 498.901H379.603C381.865 498.032 383.865 496.639 385.454 494.871Z" fill="#314E9E"></path>
                            </g>
                            <g class="svg-group" id="svg-item-bras17">
                                <ellipse cx="375.012" cy="390.688" rx="15.1739" ry="15.1095" fill="#19A854"></ellipse>
                                <path fill-rule="evenodd" clip-rule="evenodd" d="M389.941 393.404C390.102 392.523 390.186 391.615 390.186 390.688C390.186 389.46 390.038 388.265 389.761 387.122L374.505 378.601L360.309 386.937C360.001 388.137 359.838 389.393 359.838 390.688C359.838 391.681 359.934 392.652 360.118 393.592L374.505 402.776L389.941 393.404Z" fill="#FADC44"></path>
                                <ellipse cx="374.505" cy="390.185" rx="7.58695" ry="7.55474" fill="#27366F"></ellipse>
                                <path d="M366.918 388.17C370.121 387.666 377.641 387.666 382.092 391.696" stroke="white" stroke-width="2"></path>
                            </g>
                            <g class="svg-group" id="svg-icon-spain">
                                <ellipse cx="592.857" cy="114.4" rx="15.1739" ry="15.1095" fill="#D5242D"></ellipse>
                                <path fill-rule="evenodd" clip-rule="evenodd" d="M604.998 123.466C606.903 120.941 608.031 117.802 608.031 114.4C608.031 110.999 606.903 107.86 604.998 105.334H580.717C578.812 107.86 577.684 110.999 577.684 114.4C577.684 117.802 578.812 120.941 580.717 123.466H604.998Z" fill="#FCBF3D"></path>
                            </g>
                            <g class="svg-group" id="svg-item-peru">
                                <ellipse cx="233.174" cy="343.109" rx="15.1095" ry="15.1739" transform="rotate(90 233.174 343.109)" fill="white"></ellipse>
                                <path fill-rule="evenodd" clip-rule="evenodd" d="M228.116 357.359L228.116 328.86C222.223 330.934 218 336.53 218 343.109C218 349.688 222.223 355.285 228.116 357.359ZM238.232 357.359L238.232 328.86C244.126 330.934 248.348 336.531 248.348 343.109C248.348 349.688 244.126 355.285 238.232 357.359Z" fill="#DB2632"></path>
                            </g>
                            <g opacity="0.3">
                                <path d="M735.625 46.003C746.66 46.003 755.578 54.8624 755.578 65.7777C755.578 76.6931 746.66 85.515 735.625 85.515C724.59 85.515 715.672 76.6931 715.672 65.7777C715.672 54.8624 724.59 46.003 735.625 46.003Z" fill="#283848"></path>
                                <path d="M715.442 19.6625C715.442 19.9615 715.517 20.2232 715.517 20.5223C715.064 35.2505 702.933 47.0256 687.931 47.063L639.673 47.2499C628.789 47.4368 620.022 56.184 620.022 66.9872C620.022 67.2862 620.098 67.5479 620.098 67.847C619.644 82.5752 607.514 94.3503 592.511 94.3877L592.436 94.4624C581.401 94.4624 572.482 103.322 572.482 114.2C572.482 125.078 581.401 133.974 592.436 133.974C603.47 133.974 612.389 125.115 612.389 114.2C612.389 113.863 612.313 113.527 612.275 113.19C612.804 98.8734 624.406 87.36 638.879 86.8367C638.879 86.8367 688.082 86.575 689.404 86.4628C699.457 85.6404 707.355 77.5661 707.695 67.5105C707.695 66.7255 707.695 64.6695 707.922 63.1743C707.922 63.1369 707.922 63.1369 707.959 63.0995C709.811 50.0535 720.846 39.9605 734.45 39.5119C734.677 39.5119 734.866 39.5119 735.13 39.5119C735.244 39.5119 735.319 39.5119 735.433 39.5119C735.508 39.5119 735.584 39.5119 735.659 39.5119C736.944 39.5119 738.607 39.6241 740.345 39.8858C740.61 39.9231 740.874 39.9605 741.101 40.0353C741.403 40.11 741.744 40.1848 742.046 40.2596C742.688 40.4091 743.293 40.596 743.898 40.7829C744.086 40.8577 744.313 40.8951 744.502 40.9698C755.272 44.6706 763.019 54.7261 763.095 66.6134L763.095 66.7629C763.095 66.7629 763.095 66.875 763.095 66.9124C763.095 66.9498 763.095 67.0246 763.095 67.062L763.095 68.632C762.188 82.949 750.284 94.2755 735.584 94.3129L735.508 94.3877C734.828 94.3877 734.186 94.5372 733.543 94.5746L733.543 94.4624L689.808 94.5746C679.756 95.6213 671.896 103.92 671.896 114.125C671.896 124.33 679.756 132.666 689.808 133.675L733.543 133.788L733.543 133.675C734.186 133.75 734.828 133.862 735.508 133.862C746.543 133.862 755.461 125.003 755.461 114.088C755.461 113.751 755.386 113.415 755.348 113.078C755.877 99.2098 766.798 87.9207 780.667 86.7619L784.56 86.4255C794.876 85.6405 803.001 77.2297 803.001 66.875C803.001 56.5204 795.141 48.3339 785.089 47.3247C783.993 47.2125 782.897 47.1751 782.254 47.1377C782.217 47.1377 782.179 47.1377 782.103 47.1377C782.028 47.1377 781.952 47.1377 781.876 47.1377C781.763 47.1377 781.65 47.1377 781.65 47.1377C767.365 46.3901 755.953 34.9888 755.423 20.8213C755.423 20.8213 755.423 20.3354 755.31 19.513C755.235 18.6158 755.121 17.7187 754.97 16.8589C754.97 16.7094 754.932 16.5599 754.894 16.4103C754.705 15.2515 754.403 14.1301 754.025 13.0834C751.267 5.45761 743.935 -5.89993e-05 735.281 -5.9102e-05C724.247 -5.92331e-05 715.328 8.85931 715.328 19.7746L715.442 19.6625Z" fill="#3E7578"></path>
                            </g>
                        </svg>