<svg width="41" height="40" viewBox="0 0 41 40" fill="none" xmlns="http://www.w3.org/2000/svg">
<path d="M20.5 0C20.064 0 19.636 0.00333356 19.216 0.0100002L17.984 0.0440001L17.386 0.0700002L16.228 0.138L15.122 0.23C5.552 1.158 1.658 5.052 0.73 14.622L0.638 15.728L0.57 16.886C0.559334 17.082 0.550667 17.2813 0.544 17.484L0.51 18.716L0.502 19.352L0.5 20C0.5 20.436 0.503334 20.864 0.51 21.284L0.544 22.516L0.57 23.114L0.638 24.272L0.73 25.378C1.658 34.948 5.552 38.842 15.122 39.77L16.228 39.862L17.386 39.93C17.582 39.9407 17.7813 39.9493 17.984 39.956L19.216 39.99L20.5 40L21.784 39.99L23.016 39.956L23.614 39.93L24.772 39.862L25.878 39.77C35.448 38.842 39.342 34.948 40.27 25.378L40.362 24.272L40.43 23.114C40.4407 22.918 40.4493 22.7187 40.456 22.516L40.49 21.284L40.5 20L40.49 18.716L40.456 17.484L40.43 16.886L40.362 15.728L40.27 14.622C39.342 5.052 35.448 1.158 25.878 0.23L24.772 0.138L23.614 0.0700002L23.016 0.0440001L21.784 0.0100002L21.148 0.00199986L20.5 0ZM25.086 14.586C25.4459 14.2273 25.9289 14.0191 26.4368 14.0035C26.9447 13.988 27.4394 14.1664 27.8206 14.5025C28.2017 14.8386 28.4406 15.3071 28.4888 15.8129C28.537 16.3188 28.3908 16.824 28.08 17.226L27.914 17.414L19.914 25.414C19.5696 25.7584 19.1114 25.9652 18.6254 25.9958C18.1393 26.0263 17.6588 25.8785 17.274 25.58L17.086 25.414L13.086 21.414C12.7273 21.0541 12.5191 20.5711 12.5035 20.0632C12.488 19.5553 12.6664 19.0606 13.0025 18.6794C13.3386 18.2983 13.8071 18.0594 14.3129 18.0112C14.8188 17.963 15.324 18.1092 15.726 18.42L15.914 18.586L18.5 21.17L25.086 14.586Z" fill="white"/>
</svg>
