<svg width="40" height="40" viewBox="0 0 40 40" fill="none" xmlns="http://www.w3.org/2000/svg">
<path d="M20 0L20.648 0.00199986L21.284 0.0100002L22.516 0.0440001L23.114 0.0700002L24.272 0.138L25.378 0.23C34.948 1.158 38.842 5.052 39.77 14.622L39.862 15.728L39.93 16.886C39.9407 17.082 39.9493 17.2813 39.956 17.484L39.99 18.716L40 20L39.99 21.284L39.956 22.516L39.93 23.114L39.862 24.272L39.77 25.378C38.842 34.948 34.948 38.842 25.378 39.77L24.272 39.862L23.114 39.93C22.918 39.9407 22.7187 39.9493 22.516 39.956L21.284 39.99L20 40L18.716 39.99L17.484 39.956L16.886 39.93L15.728 39.862L14.622 39.77C5.052 38.842 1.158 34.948 0.23 25.378L0.138 24.272L0.0700002 23.114L0.0440001 22.516L0.0100002 21.284C0.00333356 20.864 0 20.436 0 20L0.00199986 19.352L0.0100002 18.716L0.0440001 17.484L0.0700002 16.886L0.138 15.728L0.23 14.622C1.158 5.052 5.052 1.158 14.622 0.23L15.728 0.138L16.886 0.0700002C17.082 0.0593335 17.2813 0.0506668 17.484 0.0440001L18.716 0.0100002C19.136 0.00333356 19.564 0 20 0ZM17.022 14.28C16.603 14.0306 16.1072 13.9428 15.628 14.0333C15.1488 14.1237 14.7192 14.3861 14.4199 14.7712C14.1206 15.1562 13.9723 15.6373 14.0029 16.124C14.0335 16.6107 14.2409 17.0695 14.586 17.414L17.17 20L14.586 22.586L14.42 22.774C14.1092 23.176 13.963 23.6812 14.0112 24.1871C14.0594 24.6929 14.2983 25.1614 14.6794 25.4975C15.0606 25.8336 15.5553 26.012 16.0632 25.9965C16.5711 25.9809 17.0541 25.7727 17.414 25.414L20 22.83L22.586 25.414L22.774 25.58C23.176 25.8908 23.6812 26.037 24.1871 25.9888C24.6929 25.9406 25.1614 25.7017 25.4975 25.3206C25.8336 24.9394 26.012 24.4447 25.9965 23.9368C25.9809 23.4289 25.7727 22.9459 25.414 22.586L22.83 20L25.414 17.414L25.58 17.226C25.8908 16.824 26.037 16.3188 25.9888 15.8129C25.9406 15.3071 25.7017 14.8386 25.3206 14.5025C24.9394 14.1664 24.4447 13.988 23.9368 14.0035C23.4289 14.0191 22.9459 14.2273 22.586 14.586L20 17.17L17.414 14.586L17.226 14.42L17.022 14.28Z" fill="white"/>
</svg>
