<svg width="396" height="130" viewBox="0 0 396 130" fill="none" xmlns="http://www.w3.org/2000/svg">
<path d="M9.15325 4.60265C9.15325 7.14806 7.10957 9.21403 4.58096 9.21403C2.05234 9.21403 0 7.14806 0 4.60265C0 2.05725 2.04368 0 4.5723 0C7.10091 0 9.14459 2.06596 9.14459 4.60265H9.15325Z" fill="#6DB3AE"/>
<path d="M20.1602 15.5343C20.1602 18.0797 18.1165 20.137 15.5879 20.137C13.0593 20.137 11.0156 18.0797 11.0156 15.5343C11.0156 12.9889 13.0593 10.9316 15.5879 10.9316C18.1165 10.9316 20.1602 12.9976 20.1602 15.5343Z" fill="#6DB3AE"/>
<path d="M26.481 20.137C29.0062 20.137 31.0533 18.0763 31.0533 15.5343C31.0533 12.9923 29.0062 10.9316 26.481 10.9316C23.9558 10.9316 21.9087 12.9923 21.9087 15.5343C21.9087 18.0763 23.9558 20.137 26.481 20.137Z" fill="#6DB3AE"/>
<path d="M20.1602 26.4994C20.1602 29.0448 18.1165 31.102 15.5879 31.102C13.0593 31.102 11.0156 29.0448 11.0156 26.4994C11.0156 23.954 13.0593 21.8967 15.5879 21.8967C18.1165 21.8967 20.1602 23.954 20.1602 26.4994Z" fill="#6DB3AE"/>
<path d="M30.9249 26.4994C30.9249 29.0448 28.8725 31.102 26.3526 31.102C23.8326 31.102 21.7803 29.0448 21.7803 26.4994C21.7803 23.954 23.824 21.8967 26.3526 21.8967C28.8812 21.8967 30.9249 23.954 30.9249 26.4994Z" fill="#283848"/>
<path d="M52.7025 26.4994C52.7025 29.0448 50.6501 31.102 48.1302 31.102C45.6102 31.102 43.5579 29.0448 43.5579 26.4994C43.5579 23.954 45.6015 21.8967 48.1302 21.8967C50.6588 21.8967 52.7025 23.954 52.7025 26.4994Z" fill="#283848"/>
<path d="M74.5322 26.4994C74.5322 29.0448 72.4798 31.102 69.9512 31.102C67.4226 31.102 65.3789 29.0448 65.3789 26.4994C65.3789 23.954 67.4226 21.8967 69.9512 21.8967C72.4798 21.8967 74.5322 23.954 74.5322 26.4994Z" fill="#6DB3AE"/>
<path d="M41.8094 37.4484C41.8094 39.9938 39.7657 42.0597 37.2371 42.0597C34.7085 42.0597 32.6648 39.9938 32.6648 37.4484C32.6648 34.9029 34.7171 32.8457 37.2371 32.8457C39.757 32.8457 41.8094 34.9117 41.8094 37.4484Z" fill="#283848"/>
<path d="M52.7025 37.4484C52.7025 39.9938 50.6501 42.0597 48.1302 42.0597C45.6102 42.0597 43.5579 39.9938 43.5579 37.4484C43.5579 34.9029 45.6015 32.8457 48.1302 32.8457C50.6588 32.8457 52.7025 34.9117 52.7025 37.4484Z" fill="#6DB3AE"/>
<path d="M26.3526 53.1133C28.8778 53.1133 30.9249 51.0526 30.9249 48.5106C30.9249 45.9686 28.8778 43.908 26.3526 43.908C23.8274 43.908 21.7803 45.9686 21.7803 48.5106C21.7803 51.0526 23.8274 53.1133 26.3526 53.1133Z" fill="#6DB3AE"/>
<path d="M41.8094 48.5106C41.8094 51.056 39.7657 53.1133 37.2371 53.1133C34.7085 53.1133 32.6648 51.056 32.6648 48.5106C32.6648 45.9652 34.7171 43.908 37.2371 43.908C39.757 43.908 41.8094 45.9652 41.8094 48.5106Z" fill="#6DB3AE"/>
<path d="M52.7025 48.5106C52.7025 51.056 50.6501 53.1133 48.1302 53.1133C45.6102 53.1133 43.5579 51.056 43.5579 48.5106C43.5579 45.9652 45.6015 43.908 48.1302 43.908C50.6588 43.908 52.7025 45.9652 52.7025 48.5106Z" fill="#283848"/>
<path d="M85.5057 48.5106C85.5057 51.056 83.462 53.1133 80.9334 53.1133C78.4048 53.1133 76.3611 51.056 76.3611 48.5106C76.3611 45.9652 78.4134 43.908 80.9334 43.908C83.4533 43.908 85.5057 45.9652 85.5057 48.5106Z" fill="#3E7578"/>
<path d="M91.8006 53.1133C94.3258 53.1133 96.3729 51.0526 96.3729 48.5106C96.3729 45.9686 94.3258 43.908 91.8006 43.908C89.2754 43.908 87.2283 45.9686 87.2283 48.5106C87.2283 51.0526 89.2754 53.1133 91.8006 53.1133Z" fill="#3E7578"/>
<path d="M41.8094 59.5218C41.8094 62.0673 39.7657 64.1245 37.2371 64.1245C34.7085 64.1245 32.6648 62.0673 32.6648 59.5218C32.6648 56.9764 34.7171 54.9192 37.2371 54.9192C39.757 54.9192 41.8094 56.9764 41.8094 59.5218Z" fill="#6DB3AE"/>
<path d="M74.5322 59.5218C74.5322 62.0673 72.4798 64.1245 69.9512 64.1245C67.4226 64.1245 65.3789 62.0673 65.3789 59.5218C65.3789 56.9764 67.4226 54.9192 69.9512 54.9192C72.4798 54.9192 74.5322 56.9764 74.5322 59.5218Z" fill="#283848"/>
<path d="M41.8094 70.4857C41.8094 73.0311 39.7657 75.0971 37.2371 75.0971C34.7085 75.0971 32.6648 73.0311 32.6648 70.4857C32.6648 67.9403 34.7171 65.8831 37.2371 65.8831C39.757 65.8831 41.8094 67.949 41.8094 70.4857Z" fill="#6DB3AE"/>
<path d="M63.5883 70.4857C63.5883 73.0311 61.536 75.0971 59.016 75.0971C56.4961 75.0971 54.4351 73.0311 54.4351 70.4857C54.4351 67.9403 56.4874 65.8831 59.016 65.8831C61.5446 65.8831 63.5883 67.949 63.5883 70.4857Z" fill="#283848"/>
<path d="M85.5057 70.4857C85.5057 73.0311 83.462 75.0971 80.9334 75.0971C78.4048 75.0971 76.3611 73.0311 76.3611 70.4857C76.3611 67.9403 78.4134 65.8831 80.9334 65.8831C83.4533 65.8831 85.5057 67.949 85.5057 70.4857Z" fill="#3E7578"/>
<path d="M41.8094 81.4882C41.8094 84.0336 39.7657 86.0995 37.2371 86.0995C34.7085 86.0995 32.6648 84.0336 32.6648 81.4882C32.6648 78.9428 34.7171 76.8855 37.2371 76.8855C39.757 76.8855 41.8094 78.9428 41.8094 81.4882Z" fill="#93C01F"/>
<path d="M41.8094 92.4634C41.8094 95.0001 39.7657 97.0661 37.2371 97.0661C34.7085 97.0661 32.6648 95.0088 32.6648 92.4634C32.6648 89.918 34.7171 87.8521 37.2371 87.8521C39.757 87.8521 41.8094 89.9093 41.8094 92.4634Z" fill="#93C01F"/>
<path d="M52.7025 92.4634C52.7025 95.0001 50.6501 97.0661 48.1302 97.0661C45.6102 97.0661 43.5579 95.0088 43.5579 92.4634C43.5579 89.918 45.6015 87.8521 48.1302 87.8521C50.6588 87.8521 52.7025 89.9093 52.7025 92.4634Z" fill="#93C01F"/>
<path d="M58.9893 87.8439C58.92 87.8439 58.8594 87.8613 58.7901 87.8613C55.3782 87.7567 52.6504 84.9585 52.6418 81.4978L52.6937 59.5654C52.6937 59.5654 52.6937 59.5306 52.6937 59.5218C52.6937 56.9764 50.6414 54.9192 48.1214 54.9192C45.6015 54.9192 43.6011 56.9329 43.5578 59.4347L43.4712 81.2624H43.4972C43.4972 81.3409 43.4712 81.4106 43.4712 81.4891C43.4712 84.0345 45.5235 86.0917 48.0521 86.0917C48.1301 86.0917 48.208 86.0743 48.286 86.0656C51.6805 86.1876 54.4083 88.9945 54.4083 92.4465C54.4083 92.464 54.4083 92.4901 54.4083 92.5075L54.4256 92.525C54.4689 95.0355 56.4866 97.0579 58.9893 97.0579C61.4919 97.0579 63.5702 94.9919 63.5702 92.4465C63.5702 89.9011 61.5179 87.8439 58.9893 87.8439Z" fill="#93C01F"/>
<path d="M26.3507 32.8457C25.0171 32.8457 23.8394 33.4298 23.008 34.3451L22.5751 34.746C21.3108 35.6352 20.5314 35.6352 19.2671 34.746L18.7648 34.2927C17.9335 33.4123 16.7731 32.8457 15.4742 32.8457C12.9455 32.8457 10.9019 34.9117 10.9019 37.4484C10.9019 39.985 12.9455 42.0597 15.4742 42.0597C16.7038 42.0597 17.7949 41.5629 18.6176 40.7696L19.1372 40.2989C20.5054 39.2964 21.2848 39.279 22.6357 40.2291L22.7742 40.3425L23.2159 40.7522C24.0385 41.5454 25.1297 42.0597 26.368 42.0597C28.8966 42.0597 30.9403 39.9938 30.9403 37.4484C30.9403 34.9029 28.8879 32.8457 26.368 32.8457H26.3507Z" fill="#3E7578"/>
<path d="M48.1309 10.9316C46.9013 10.9316 45.8101 11.4285 44.9875 12.2218L44.4679 12.6925C43.0997 13.695 42.3203 13.7124 40.9694 12.7622L40.8308 12.6489L40.3892 12.2392C39.5665 11.446 38.4754 10.9316 37.2371 10.9316C34.7085 10.9316 32.6648 12.9976 32.6648 15.543C32.6648 16.9029 33.2623 18.1059 34.1889 18.9514L34.5526 19.3437C35.4359 20.6164 35.4359 21.4009 34.5526 22.6736L34.1023 23.1792C33.2277 24.0248 32.6648 25.1842 32.6648 26.5005C32.6648 29.0459 34.7171 31.1031 37.2371 31.1031C39.757 31.1031 41.818 29.0459 41.818 26.5005C41.818 25.2626 41.3244 24.1643 40.5364 23.3361L40.0601 22.8131C39.0643 21.4358 39.047 20.6513 39.9909 19.2914L40.1034 19.1519L40.5104 18.7073L41.0127 18.2453C42.277 17.3562 43.0564 17.3562 44.3207 18.2453L44.8229 18.6986C45.6543 19.5791 46.8147 20.1457 48.1136 20.1457C50.6422 20.1457 52.6859 18.0797 52.6859 15.543C52.6859 13.0063 50.6422 10.9316 48.1136 10.9316H48.1309Z" fill="#3E7578"/>
<path d="M48.1136 98.8347C46.78 98.8347 45.6023 99.4188 44.771 100.334L44.338 100.735C43.0737 101.624 42.2943 101.624 41.03 100.735L40.5278 100.282C39.6964 99.4013 38.536 98.8347 37.2371 98.8347C34.7085 98.8347 32.6648 100.901 32.6648 103.437C32.6648 105.974 34.7085 108.049 37.2371 108.049C38.4668 108.049 39.5579 107.552 40.3805 106.759L40.9001 106.288C42.2683 105.285 43.0477 105.268 44.3986 106.218L44.5372 106.331L44.9788 106.741C45.8015 107.534 46.8926 108.049 48.1309 108.049C50.6595 108.049 52.7032 105.983 52.7032 103.437C52.7032 100.892 50.6509 98.8347 48.1309 98.8347H48.1136Z" fill="#93C01F"/>
<path d="M69.901 76.8855C68.5674 76.8855 67.3897 77.4695 66.5583 78.3848L66.1254 78.7858C64.861 79.675 64.0817 79.675 62.8174 78.7858L62.3151 78.3325C61.4838 77.4521 60.3234 76.8855 59.0244 76.8855C56.4958 76.8855 54.4521 78.9515 54.4521 81.4882C54.4521 84.0248 56.4958 86.0995 59.0244 86.0995C60.2541 86.0995 61.3452 85.6027 62.1679 84.8094L62.6875 84.3387C64.0557 83.3362 64.8351 83.3188 66.186 84.2689L66.3245 84.3823L66.7662 84.792C67.5888 85.5852 68.6799 86.0995 69.9183 86.0995C72.4469 86.0995 74.4906 84.0336 74.4906 81.4882C74.4906 78.9428 72.4382 76.8855 69.9183 76.8855H69.901Z" fill="#3E7578"/>
<path d="M91.8172 32.8457C90.4836 32.8457 89.3059 33.4298 88.4746 34.3451L88.0416 34.746C86.7773 35.6352 85.9979 35.6352 84.7336 34.746L84.2314 34.2927C83.4 33.4123 82.2396 32.8457 80.9407 32.8457C78.4121 32.8457 76.3684 34.9117 76.3684 37.4484C76.3684 39.985 78.4121 42.0597 80.9407 42.0597C82.1704 42.0597 83.2615 41.5629 84.0842 40.7696L84.6037 40.2989C85.972 39.2964 86.7513 39.279 88.1022 40.2291L88.2408 40.3425L88.6824 40.7522C89.5051 41.5454 90.5962 42.0597 91.8345 42.0597C94.3632 42.0597 96.4068 39.9938 96.4068 37.4484C96.4068 34.9029 94.3545 32.8457 91.8345 32.8457H91.8172Z" fill="#3E7578"/>
<path d="M59.1023 64.1247H59.6652C59.6652 64.1247 59.5006 63.715 59.44 63.6976C59.3794 63.6801 58.9377 63.8458 58.9377 63.8458L59.1023 64.116V64.1247Z" fill="#3E7578"/>
<path d="M41.808 125.388C41.808 124.046 41.2278 122.861 40.3186 122.024L39.9202 121.588C39.0369 120.315 39.0369 119.531 39.9202 118.258L40.3705 117.752C41.2452 116.907 41.808 115.747 41.808 114.431C41.808 111.886 39.7557 109.828 37.2357 109.828C34.7158 109.828 32.6548 111.886 32.6548 114.431C32.6548 115.669 33.1484 116.767 33.9364 117.595L34.4127 118.118C35.4086 119.496 35.4259 120.28 34.482 121.64L34.3694 121.78L33.9624 122.224C33.1657 123.052 32.6634 124.159 32.6634 125.397C32.6634 127.943 34.7158 130 37.2444 130C39.773 130 41.8167 127.934 41.8167 125.397L41.808 125.388Z" fill="#93C01F"/>
<path d="M80.8989 54.8661C80.8297 54.8661 80.769 54.8836 80.6998 54.8836C77.2879 54.779 74.5601 51.9808 74.5514 48.5201L74.5081 37.3883C74.4648 34.8777 72.4385 32.8553 69.9358 32.8553C69.8665 32.8553 69.8059 32.8728 69.7366 32.8728C66.3247 32.7682 63.597 29.97 63.5883 26.5092L63.571 26.4918C63.571 23.9464 61.5186 21.8892 58.9987 21.8892C56.4787 21.8892 54.4177 23.9464 54.4177 26.4918C54.4177 29.0372 56.4701 31.0945 58.9987 31.0945C59.0766 31.0945 59.1546 31.077 59.2325 31.0683C62.5491 31.1904 65.2163 33.8665 65.3375 37.2052C65.3375 37.2052 65.3982 48.5549 65.4241 48.86C65.6147 51.1788 67.4851 53.0007 69.8146 53.0791C69.9964 53.0791 70.4727 53.0791 70.8191 53.1314C70.8278 53.1314 70.8278 53.1314 70.8364 53.1401C73.8586 53.5673 76.1967 56.1127 76.3007 59.2509C76.3007 59.3032 76.3007 59.3468 76.3007 59.4078C76.3007 59.4339 76.3007 59.4514 76.3007 59.4775C76.3007 59.4949 76.3007 59.5124 76.3007 59.5298C76.3007 59.8262 76.2747 60.2098 76.2141 60.6107C76.2054 60.6718 76.1967 60.7328 76.1794 60.7851C76.1621 60.8548 76.1448 60.9333 76.1275 61.003C76.0928 61.1512 76.0495 61.2907 76.0062 61.4302C75.9889 61.4737 75.9803 61.526 75.9629 61.5696C75.1056 64.054 72.7762 65.841 70.0224 65.8585H69.9878C69.9878 65.8585 69.9618 65.8585 69.9531 65.8585C69.9445 65.8585 69.9272 65.8585 69.9185 65.8585H69.5548C66.2381 65.6493 63.6143 62.9033 63.6056 59.5124L63.5883 59.4949C63.5883 59.338 63.5537 59.1898 63.545 59.0417H63.571L63.545 36.9524C63.3025 34.6336 61.3801 32.8205 59.016 32.8205C56.6519 32.8205 54.7208 34.6336 54.487 36.9524L54.461 59.0417H54.487C54.4697 59.1898 54.4437 59.338 54.4437 59.4949C54.4437 62.0404 56.496 64.0976 59.0247 64.0976C59.1026 64.0976 59.1805 64.0802 59.2585 64.0714C62.4712 64.1935 65.0864 66.7127 65.3549 69.9119L65.4328 70.8098C65.6146 73.1896 67.5631 75.0638 69.9618 75.0638C72.3605 75.0638 74.257 73.2506 74.4908 70.9318C74.5168 70.6791 74.5254 70.4263 74.5341 70.2781C74.5341 70.2693 74.5341 70.2606 74.5341 70.2432C74.5341 70.2258 74.5341 70.2083 74.5341 70.1909C74.5341 70.1647 74.5341 70.1386 74.5341 70.1386C74.7073 66.8435 77.3485 64.2109 80.6305 64.0889C80.6305 64.0889 80.7431 64.0889 80.9336 64.0627C81.1414 64.0453 81.3492 64.0191 81.5484 63.9843C81.583 63.9843 81.6177 63.9756 81.6523 63.9668C81.9208 63.9233 82.1806 63.8535 82.423 63.7663C84.1896 63.13 85.4539 61.4389 85.4539 59.4426C85.4539 56.8972 83.4016 54.84 80.873 54.84L80.8989 54.8661Z" fill="#3E7578"/>
<path d="M59.0158 94.7111C57.7775 94.7111 56.7729 93.6999 56.7729 92.4621C56.7729 91.2242 57.7775 90.2043 59.0158 90.2043C60.2541 90.2043 61.25 91.2155 61.25 92.4621C61.25 93.7086 60.2455 94.7111 59.0158 94.7111Z" fill="white"/>
<path d="M131.884 38.3245H145.162L164.55 91.6901H151.431L147.388 79.4504H128.713L124.655 91.6901H112.104L131.898 38.3245H131.884ZM144.523 70.0803L138.094 49.92L131.505 70.0803H144.537H144.523Z" fill="white"/>
<path d="M168.753 38.3245H188.62C191.907 38.3245 194.685 38.7198 196.968 39.4811C199.252 40.257 201.099 41.2819 202.539 42.5556C203.964 43.8294 204.997 45.3228 205.637 46.9918C206.277 48.6755 206.582 50.4177 206.582 52.2332C206.582 53.9462 206.277 55.4542 205.666 56.7572C205.055 58.0602 204.342 59.1876 203.528 60.1246C202.713 61.0616 201.841 61.7936 200.91 62.3207C199.979 62.8478 199.194 63.1991 198.568 63.3602C199.528 63.5798 200.619 63.9605 201.87 64.5168C203.121 65.0732 204.299 65.8784 205.404 66.9179C206.509 67.9574 207.455 69.2604 208.226 70.8416C208.996 72.4082 209.375 74.2676 209.375 76.4051C209.375 79.1722 208.88 81.5294 207.906 83.4473C206.931 85.3653 205.55 86.9465 203.775 88.1617C202.001 89.3915 199.834 90.2846 197.259 90.8409C194.685 91.3973 191.82 91.6901 188.635 91.6901H168.767V38.3245H168.753ZM187.5 59.6854C188.402 59.6854 189.289 59.5829 190.162 59.3633C191.034 59.1583 191.805 58.8216 192.46 58.3677C193.129 57.9138 193.667 57.2989 194.089 56.5229C194.51 55.747 194.729 54.7953 194.729 53.6826C194.729 52.5699 194.51 51.5451 194.089 50.7691C193.667 49.9932 193.114 49.3783 192.416 48.9244C191.718 48.4705 190.947 48.1484 190.074 47.9727C189.202 47.7824 188.344 47.6946 187.5 47.6946H180.432V59.7H187.5V59.6854ZM188.213 82.4078C189.056 82.4078 190.016 82.3346 191.078 82.2029C192.14 82.0711 193.114 81.7636 194.016 81.2805C194.918 80.7974 195.674 80.1092 196.285 79.2015C196.896 78.2938 197.201 77.0493 197.201 75.4388C197.201 74.004 196.91 72.8328 196.329 71.925C195.747 71.0173 195.005 70.3146 194.103 69.8021C193.201 69.2897 192.227 68.953 191.165 68.7626C190.104 68.5723 189.129 68.4845 188.227 68.4845H180.432V82.4078H188.227H188.213Z" fill="white"/>
<path d="M215.963 38.3242H252.208V48.8802H227.977V59.2752H246.812V69.5091H227.977V81.0314H253.967V91.6752H215.978V38.3096L215.963 38.3242Z" fill="white"/>
<path d="M305.687 81.8369C304.581 83.3888 303.229 84.8382 301.644 86.1998C300.058 87.5614 298.298 88.7473 296.364 89.7575C294.43 90.7677 292.335 91.573 290.081 92.1586C287.827 92.7443 285.485 93.0371 283.056 93.0371C279.027 93.0371 275.348 92.3489 272.002 90.9581C268.657 89.5672 265.792 87.6346 263.378 85.1603C260.963 82.686 259.102 79.7432 257.778 76.3612C256.455 72.9792 255.786 69.2604 255.786 65.205C255.786 61.1495 256.455 57.5625 257.778 54.1219C259.102 50.6813 260.978 47.6946 263.378 45.1617C265.792 42.6289 268.672 40.6231 272.046 39.159C275.406 37.6949 279.129 36.9629 283.216 36.9629C288.146 36.9629 292.452 37.8706 296.131 39.6861C299.811 41.5015 302.88 44.1076 305.309 47.5189L297.12 55.4396C295.535 53.1995 293.644 51.3987 291.477 50.0371C289.31 48.6755 286.707 48.002 283.696 48.002C281.311 48.002 279.173 48.4413 277.253 49.3197C275.348 50.1982 273.733 51.4133 272.41 52.9653C271.086 54.5172 270.068 56.318 269.355 58.3677C268.643 60.4174 268.279 62.5989 268.279 64.8829C268.279 67.1668 268.643 69.4215 269.355 71.4419C270.068 73.477 271.086 75.2339 272.41 76.7272C273.733 78.2206 275.319 79.3919 277.18 80.2557C279.027 81.1048 281.122 81.5294 283.449 81.5294C285.354 81.5294 287.012 81.3244 288.423 80.9291C289.819 80.5338 291.07 79.9921 292.161 79.3333C293.237 78.6598 294.211 77.8985 295.055 77.0054C295.899 76.127 296.728 75.2339 297.513 74.3262L305.701 81.8515L305.687 81.8369Z" fill="white"/>
<path d="M310.369 38.3242H346.613V48.8802H322.382V59.2752H341.217V69.5091H322.382V81.0314H348.373V91.6752H310.383V38.3096L310.369 38.3242Z" fill="white"/>
<path d="M354.874 38.3245H374.742C378.029 38.3245 380.807 38.7198 383.09 39.4811C385.373 40.257 387.221 41.2819 388.66 42.5556C390.086 43.8294 391.118 45.3228 391.758 46.9918C392.398 48.6755 392.718 50.4177 392.718 52.2332C392.718 53.9462 392.413 55.4542 391.802 56.7572C391.191 58.0602 390.478 59.1876 389.649 60.1246C388.835 61.0616 387.948 61.7936 387.032 62.3207C386.101 62.8478 385.315 63.1991 384.69 63.3602C385.65 63.5798 386.741 63.9605 387.991 64.5168C389.242 65.0732 390.42 65.8784 391.526 66.9179C392.631 67.9574 393.576 69.2604 394.347 70.8416C395.118 72.4082 395.496 74.2676 395.496 76.4051C395.496 79.1722 395.002 81.5294 394.027 83.4473C393.038 85.3653 391.671 86.9465 389.897 88.1617C388.122 89.3915 385.941 90.2846 383.381 90.8409C380.807 91.3973 377.941 91.6901 374.756 91.6901H354.889V38.3245H354.874ZM373.622 59.6854C374.524 59.6854 375.411 59.5829 376.283 59.3633C377.156 59.1583 377.927 58.8216 378.581 58.3677C379.236 57.9138 379.789 57.2989 380.21 56.5229C380.632 55.747 380.85 54.7953 380.85 53.6826C380.85 52.5699 380.632 51.5451 380.21 50.7691C379.789 49.9932 379.236 49.3783 378.538 48.9244C377.854 48.4705 377.069 48.1484 376.196 47.9727C375.323 47.7824 374.465 47.6946 373.622 47.6946H366.553V59.7H373.622V59.6854ZM374.334 82.4078C375.178 82.4078 376.138 82.3346 377.2 82.2029C378.261 82.0711 379.236 81.7636 380.138 81.2805C381.039 80.7974 381.796 80.1092 382.406 79.2015C383.017 78.2938 383.323 77.0493 383.323 75.4388C383.323 74.004 383.032 72.8328 382.45 71.925C381.868 71.0173 381.127 70.3146 380.225 69.8021C379.323 69.2897 378.349 68.953 377.287 68.7626C376.225 68.5723 375.251 68.4845 374.349 68.4845H366.553V82.4078H374.349H374.334Z" fill="white"/>
</svg>
