<svg width="248" height="114" viewBox="0 0 248 114" fill="none" xmlns="http://www.w3.org/2000/svg">
<g clip-path="url(#clip0_166_1085)">
<path d="M8.10939 4.03648C8.10939 6.26878 6.29878 8.08061 4.05853 8.08061C1.81828 8.08061 0 6.26878 0 4.03648C0 1.80418 1.81061 0 4.05086 0C6.29111 0 8.10172 1.81183 8.10172 4.03648H8.10939Z" fill="#6DB3AE"/>
<path d="M17.8605 13.6232C17.8605 15.8554 16.0499 17.6596 13.8096 17.6596C11.5694 17.6596 9.75879 15.8554 9.75879 13.6232C9.75879 11.3909 11.5694 9.58667 13.8096 9.58667C16.0499 9.58667 17.8605 11.3985 17.8605 13.6232Z" fill="#6DB3AE"/>
<path d="M23.461 17.6596C25.6982 17.6596 27.5119 15.8524 27.5119 13.6232C27.5119 11.3939 25.6982 9.58667 23.461 9.58667C21.2238 9.58667 19.4102 11.3939 19.4102 13.6232C19.4102 15.8524 21.2238 17.6596 23.461 17.6596Z" fill="#6DB3AE"/>
<path d="M17.8605 23.2403C17.8605 25.4726 16.0499 27.2768 13.8096 27.2768C11.5694 27.2768 9.75879 25.4726 9.75879 23.2403C9.75879 21.008 11.5694 19.2039 13.8096 19.2039C16.0499 19.2039 17.8605 21.008 17.8605 23.2403Z" fill="#6DB3AE"/>
<path d="M27.3971 23.2403C27.3971 25.4726 25.5788 27.2768 23.3463 27.2768C21.1137 27.2768 19.2954 25.4726 19.2954 23.2403C19.2954 21.008 21.106 19.2039 23.3463 19.2039C25.5865 19.2039 27.3971 21.008 27.3971 23.2403Z" fill="#283848"/>
<path d="M46.692 23.2403C46.692 25.4726 44.8738 27.2768 42.6412 27.2768C40.4086 27.2768 38.5903 25.4726 38.5903 23.2403C38.5903 21.008 40.4009 19.2039 42.6412 19.2039C44.8814 19.2039 46.692 21.008 46.692 23.2403Z" fill="#283848"/>
<path d="M66.0337 23.2403C66.0337 25.4726 64.2154 27.2768 61.9752 27.2768C59.7349 27.2768 57.9243 25.4726 57.9243 23.2403C57.9243 21.008 59.7349 19.2039 61.9752 19.2039C64.2154 19.2039 66.0337 21.008 66.0337 23.2403Z" fill="#6DB3AE"/>
<path d="M37.0407 32.8424C37.0407 35.0747 35.2301 36.8865 32.9898 36.8865C30.7496 36.8865 28.939 35.0747 28.939 32.8424C28.939 30.6101 30.7572 28.8059 32.9898 28.8059C35.2224 28.8059 37.0407 30.6177 37.0407 32.8424Z" fill="#283848"/>
<path d="M46.692 32.8424C46.692 35.0747 44.8738 36.8865 42.6412 36.8865C40.4086 36.8865 38.5903 35.0747 38.5903 32.8424C38.5903 30.6101 40.4009 28.8059 42.6412 28.8059C44.8814 28.8059 46.692 30.6177 46.692 32.8424Z" fill="#6DB3AE"/>
<path d="M23.3463 46.58C25.5835 46.58 27.3971 44.7728 27.3971 42.5436C27.3971 40.3143 25.5835 38.5071 23.3463 38.5071C21.109 38.5071 19.2954 40.3143 19.2954 42.5436C19.2954 44.7728 21.109 46.58 23.3463 46.58Z" fill="#6DB3AE"/>
<path d="M37.0407 42.5436C37.0407 44.7759 35.2301 46.58 32.9898 46.58C30.7496 46.58 28.939 44.7759 28.939 42.5436C28.939 40.3113 30.7572 38.5071 32.9898 38.5071C35.2224 38.5071 37.0407 40.3113 37.0407 42.5436Z" fill="#6DB3AE"/>
<path d="M46.692 42.5436C46.692 44.7759 44.8738 46.58 42.6412 46.58C40.4086 46.58 38.5903 44.7759 38.5903 42.5436C38.5903 40.3113 40.4009 38.5071 42.6412 38.5071C44.8814 38.5071 46.692 40.3113 46.692 42.5436Z" fill="#283848"/>
<path d="M75.7541 42.5436C75.7541 44.7759 73.9434 46.58 71.7032 46.58C69.463 46.58 67.6523 44.7759 67.6523 42.5436C67.6523 40.3113 69.4706 38.5071 71.7032 38.5071C73.9358 38.5071 75.7541 40.3113 75.7541 42.5436Z" fill="#3E7578"/>
<path d="M81.3316 46.58C83.5688 46.58 85.3825 44.7728 85.3825 42.5436C85.3825 40.3143 83.5688 38.5071 81.3316 38.5071C79.0944 38.5071 77.2808 40.3143 77.2808 42.5436C77.2808 44.7728 79.0944 46.58 81.3316 46.58Z" fill="#3E7578"/>
<path d="M37.0407 52.1991C37.0407 54.4314 35.2301 56.2356 32.9898 56.2356C30.7496 56.2356 28.939 54.4314 28.939 52.1991C28.939 49.9668 30.7572 48.1626 32.9898 48.1626C35.2224 48.1626 37.0407 49.9668 37.0407 52.1991Z" fill="#6DB3AE"/>
<path d="M66.0337 52.1991C66.0337 54.4314 64.2154 56.2356 61.9752 56.2356C59.7349 56.2356 57.9243 54.4314 57.9243 52.1991C57.9243 49.9668 59.7349 48.1626 61.9752 48.1626C64.2154 48.1626 66.0337 49.9668 66.0337 52.1991Z" fill="#283848"/>
<path d="M37.0407 61.8163C37.0407 64.0486 35.2301 65.8604 32.9898 65.8604C30.7496 65.8604 28.939 64.0486 28.939 61.8163C28.939 59.584 30.7572 57.7798 32.9898 57.7798C35.2224 57.7798 37.0407 59.5916 37.0407 61.8163Z" fill="#6DB3AE"/>
<path d="M56.336 61.8163C56.336 64.0486 54.5177 65.8604 52.2851 65.8604C50.0525 65.8604 48.2266 64.0486 48.2266 61.8163C48.2266 59.584 50.0448 57.7798 52.2851 57.7798C54.5253 57.7798 56.336 59.5916 56.336 61.8163Z" fill="#283848"/>
<path d="M75.7541 61.8163C75.7541 64.0486 73.9434 65.8604 71.7032 65.8604C69.463 65.8604 67.6523 64.0486 67.6523 61.8163C67.6523 59.584 69.4706 57.7798 71.7032 57.7798C73.9358 57.7798 75.7541 59.5916 75.7541 61.8163Z" fill="#3E7578"/>
<path d="M37.0407 71.464C37.0407 73.6963 35.2301 75.5081 32.9898 75.5081C30.7496 75.5081 28.939 73.6963 28.939 71.464C28.939 69.2317 30.7572 67.4275 32.9898 67.4275C35.2224 67.4275 37.0407 69.2317 37.0407 71.464Z" fill="#93C01F"/>
<path d="M37.0407 81.089C37.0407 83.3137 35.2301 85.1255 32.9898 85.1255C30.7496 85.1255 28.939 83.3213 28.939 81.089C28.939 78.8568 30.7572 77.0449 32.9898 77.0449C35.2224 77.0449 37.0407 78.8491 37.0407 81.089Z" fill="#93C01F"/>
<path d="M46.692 81.089C46.692 83.3137 44.8738 85.1255 42.6412 85.1255C40.4086 85.1255 38.5903 83.3213 38.5903 81.089C38.5903 78.8568 40.4009 77.0449 42.6412 77.0449C44.8814 77.0449 46.692 78.8491 46.692 81.089Z" fill="#93C01F"/>
<path d="M52.262 77.0372C52.2007 77.0372 52.147 77.0525 52.0856 77.0525C49.0628 76.9608 46.6461 74.5068 46.6384 71.4717L46.6844 52.2373C46.6844 52.2373 46.6844 52.2067 46.6844 52.1991C46.6844 49.9668 44.8662 48.1626 42.6336 48.1626C40.401 48.1626 38.6288 49.9286 38.5904 52.1226L38.5137 71.2653H38.5367C38.5367 71.3341 38.5137 71.3953 38.5137 71.4641C38.5137 73.6964 40.332 75.5006 42.5722 75.5006C42.6413 75.5006 42.7103 75.4853 42.7793 75.4777C45.7868 75.5847 48.2035 78.0463 48.2035 81.0737C48.2035 81.089 48.2035 81.1119 48.2035 81.1272L48.2189 81.1425C48.2572 83.3442 50.0448 85.1178 52.262 85.1178C54.4793 85.1178 56.3206 83.306 56.3206 81.0737C56.3206 78.8414 54.5023 77.0372 52.262 77.0372Z" fill="#93C01F"/>
<path d="M23.3462 28.8059C22.1647 28.8059 21.1213 29.3181 20.3847 30.1208L20.0011 30.4725C18.881 31.2523 18.1905 31.2523 17.0704 30.4725L16.6254 30.075C15.8889 29.3028 14.8609 28.8059 13.71 28.8059C11.4698 28.8059 9.65918 30.6177 9.65918 32.8424C9.65918 35.067 11.4698 36.8865 13.71 36.8865C14.7995 36.8865 15.7662 36.4508 16.495 35.7551L16.9553 35.3423C18.1675 34.4631 18.858 34.4478 20.0548 35.2811L20.1776 35.3805L20.5689 35.7398C21.2977 36.4355 22.2644 36.8865 23.3615 36.8865C25.6018 36.8865 27.4124 35.0747 27.4124 32.8424C27.4124 30.6101 25.5941 28.8059 23.3615 28.8059H23.3462Z" fill="#3E7578"/>
<path d="M42.6413 9.58667C41.5519 9.58667 40.5852 10.0224 39.8563 10.7181L39.396 11.1309C38.1838 12.0101 37.4933 12.0254 36.2965 11.1921L36.1737 11.0927L35.7825 10.7334C35.0536 10.0377 34.0869 9.58667 32.9898 9.58667C30.7496 9.58667 28.939 11.3985 28.939 13.6308C28.939 14.8234 29.4683 15.8784 30.2892 16.6199L30.6115 16.964C31.394 18.0801 31.394 18.7681 30.6115 19.8843L30.2125 20.3277C29.4376 21.0692 28.939 22.086 28.939 23.2404C28.939 25.4727 30.7572 27.2769 32.9898 27.2769C35.2224 27.2769 37.0484 25.4727 37.0484 23.2404C37.0484 22.1548 36.611 21.1916 35.9129 20.4653L35.4909 20.0066C34.6086 18.7987 34.5933 18.1107 35.4295 16.9181L35.5293 16.7958L35.8899 16.4059L36.3348 16.0007C37.455 15.2209 38.1455 15.2209 39.2656 16.0007L39.7106 16.3982C40.4471 17.1704 41.4751 17.6673 42.626 17.6673C44.8662 17.6673 46.6768 15.8554 46.6768 13.6308C46.6768 11.4061 44.8662 9.58667 42.626 9.58667H42.6413Z" fill="#3E7578"/>
<path d="M42.626 86.6772C41.4445 86.6772 40.4011 87.1895 39.6645 87.9922L39.2809 88.3438C38.1608 89.1236 37.4703 89.1236 36.3502 88.3438L35.9052 87.9463C35.1687 87.1742 34.1406 86.6772 32.9898 86.6772C30.7496 86.6772 28.939 88.4891 28.939 90.7137C28.939 92.9384 30.7496 94.7579 32.9898 94.7579C34.0793 94.7579 35.0459 94.3221 35.7748 93.6264L36.2351 93.2136C37.4473 92.3344 38.1378 92.3191 39.3346 93.1524L39.4574 93.2518L39.8487 93.6111C40.5775 94.3068 41.5442 94.7579 42.6413 94.7579C44.8815 94.7579 46.6922 92.946 46.6922 90.7137C46.6922 88.4814 44.8739 86.6772 42.6413 86.6772H42.626Z" fill="#93C01F"/>
<path d="M61.9292 67.4275C60.7477 67.4275 59.7043 67.9397 58.9678 68.7424L58.5842 69.0941C57.464 69.8738 56.7735 69.8738 55.6534 69.0941L55.2084 68.6965C54.4719 67.9244 53.4439 67.4275 52.293 67.4275C50.0528 67.4275 48.2422 69.2393 48.2422 71.464C48.2422 73.6886 50.0528 75.5081 52.293 75.5081C53.3825 75.5081 54.3492 75.0723 55.078 74.3767L55.5383 73.9638C56.7505 73.0847 57.441 73.0694 58.6379 73.9027L58.7606 74.0021L59.1519 74.3614C59.8807 75.0571 60.8474 75.5081 61.9445 75.5081C64.1848 75.5081 65.9954 73.6963 65.9954 71.464C65.9954 69.2317 64.1771 67.4275 61.9445 67.4275H61.9292Z" fill="#3E7578"/>
<path d="M81.3471 28.8059C80.1656 28.8059 79.1222 29.3181 78.3857 30.1208L78.0021 30.4725C76.882 31.2523 76.1915 31.2523 75.0714 30.4725L74.6264 30.075C73.8899 29.3028 72.8618 28.8059 71.711 28.8059C69.4708 28.8059 67.6602 30.6177 67.6602 32.8424C67.6602 35.067 69.4708 36.8865 71.711 36.8865C72.8004 36.8865 73.7671 36.4508 74.496 35.7551L74.9563 35.3423C76.1685 34.4631 76.859 34.4478 78.0558 35.2811L78.1786 35.3805L78.5699 35.7398C79.2987 36.4355 80.2654 36.8865 81.3625 36.8865C83.6027 36.8865 85.4133 35.0747 85.4133 32.8424C85.4133 30.6101 83.5951 28.8059 81.3625 28.8059H81.3471Z" fill="#3E7578"/>
<path d="M52.3621 56.2356H52.8608C52.8608 56.2356 52.715 55.8763 52.6613 55.861C52.6076 55.8457 52.2163 55.991 52.2163 55.991L52.3621 56.2279V56.2356Z" fill="#3E7578"/>
<path d="M37.041 109.963C37.041 108.786 36.527 107.746 35.7214 107.013L35.3685 106.63C34.586 105.514 34.586 104.826 35.3685 103.71L35.7675 103.267C36.5423 102.525 37.041 101.508 37.041 100.354C37.041 98.1216 35.2227 96.3174 32.9902 96.3174C30.7576 96.3174 28.9316 98.1216 28.9316 100.354C28.9316 101.439 29.3689 102.403 30.0671 103.129L30.4891 103.588C31.3714 104.796 31.3867 105.484 30.5505 106.676L30.4507 106.798L30.0901 107.188C29.3843 107.915 28.9393 108.886 28.9393 109.971C28.9393 112.203 30.7576 114.008 32.9978 114.008C35.2381 114.008 37.0487 112.196 37.0487 109.971L37.041 109.963Z" fill="#93C01F"/>
<path d="M71.6726 48.1168C71.6113 48.1168 71.5576 48.132 71.4962 48.132C68.4734 48.0403 66.0567 45.5863 66.049 42.5513L66.0107 32.7888C65.9723 30.5871 64.177 28.8135 61.9598 28.8135C61.8984 28.8135 61.8447 28.8288 61.7833 28.8288C58.7605 28.7371 56.3438 26.2831 56.3362 23.2481L56.3208 23.2328C56.3208 21.0005 54.5025 19.1963 52.27 19.1963C50.0374 19.1963 48.2114 21.0005 48.2114 23.2328C48.2114 25.4651 50.0297 27.2692 52.27 27.2692C52.339 27.2692 52.4081 27.254 52.4771 27.2463C55.4155 27.3533 57.7785 29.7003 57.8859 32.6283C57.8859 32.6283 57.9396 42.5819 57.9626 42.8495C58.1314 44.883 59.7886 46.4808 61.8524 46.5496C62.0135 46.5496 62.4355 46.5496 62.7423 46.5954C62.75 46.5954 62.75 46.5954 62.7577 46.6031C65.4352 46.9777 67.5067 49.21 67.5988 51.9621C67.5988 52.008 67.5988 52.0462 67.5988 52.0997C67.5988 52.1227 67.5988 52.1379 67.5988 52.1609C67.5988 52.1762 67.5988 52.1915 67.5988 52.2067C67.5988 52.4667 67.5758 52.803 67.5221 53.1547C67.5144 53.2082 67.5067 53.2617 67.4914 53.3076C67.476 53.3688 67.4607 53.4376 67.4453 53.4987C67.4146 53.6287 67.3763 53.751 67.3379 53.8733C67.3226 53.9116 67.3149 53.9574 67.2996 53.9956C66.54 56.1744 64.4762 57.7416 62.0365 57.7569H62.0058C62.0058 57.7569 61.9828 57.7569 61.9751 57.7569C61.9675 57.7569 61.9521 57.7569 61.9444 57.7569H61.6222C58.6838 57.5734 56.3592 55.1653 56.3515 52.1915L56.3362 52.1762C56.3362 52.0386 56.3055 51.9086 56.2978 51.7786H56.3208L56.2978 32.4066C56.083 30.3731 54.3798 28.7829 52.2853 28.7829C50.1908 28.7829 48.4799 30.3731 48.2728 32.4066L48.2498 51.7786H48.2728C48.2575 51.9086 48.2344 52.0386 48.2344 52.1762C48.2344 54.4085 50.0527 56.2127 52.293 56.2127C52.362 56.2127 52.4311 56.1974 52.5001 56.1897C55.3465 56.2967 57.6634 58.5061 57.9013 61.3118L57.9703 62.0992C58.1314 64.1862 59.8576 65.8299 61.9828 65.8299C64.108 65.8299 65.7882 64.2397 65.9953 62.2062C66.0183 61.9845 66.026 61.7628 66.0337 61.6329C66.0337 61.6252 66.0337 61.6176 66.0337 61.6023C66.0337 61.587 66.0337 61.5717 66.0337 61.5564C66.0337 61.5335 66.0337 61.5105 66.0337 61.5105C66.1871 58.6208 68.5271 56.312 71.4348 56.205C71.4348 56.205 71.5345 56.205 71.7033 56.1821C71.8875 56.1668 72.0716 56.1438 72.2481 56.1133C72.2787 56.1133 72.3094 56.1056 72.3401 56.098C72.578 56.0597 72.8081 55.9986 73.0229 55.9221C74.588 55.3641 75.7082 53.881 75.7082 52.1303C75.7082 49.898 73.8899 48.0938 71.6496 48.0938L71.6726 48.1168Z" fill="#3E7578"/>
<path d="M52.2854 83.0613C51.1883 83.0613 50.2983 82.1745 50.2983 81.0889C50.2983 80.0033 51.1883 79.1089 52.2854 79.1089C53.3825 79.1089 54.2648 79.9957 54.2648 81.0889C54.2648 82.1821 53.3748 83.0613 52.2854 83.0613Z" fill="white"/>
<path d="M108.951 31.9553H115.956L126.183 59.8208H119.262L117.13 53.4297H107.279L105.138 59.8208H98.5171L108.959 31.9553H108.951ZM115.618 48.537L112.227 38.01L108.752 48.537H115.626H115.618Z" fill="#283848"/>
<path d="M128.4 31.9553H138.88C140.614 31.9553 142.079 32.1617 143.284 32.5593C144.488 32.9644 145.463 33.4996 146.222 34.1647C146.974 34.8298 147.519 35.6096 147.856 36.4811C148.194 37.3602 148.355 38.27 148.355 39.2179C148.355 40.1124 148.194 40.8998 147.872 41.5802C147.549 42.2606 147.173 42.8492 146.744 43.3385C146.314 43.8278 145.854 44.21 145.363 44.4852C144.872 44.7604 144.458 44.9439 144.128 45.028C144.634 45.1427 145.209 45.3415 145.869 45.632C146.529 45.9225 147.15 46.3429 147.734 46.8857C148.317 47.4285 148.815 48.1089 149.222 48.9345C149.629 49.7525 149.828 50.7234 149.828 51.8396C149.828 53.2845 149.567 54.5153 149.053 55.5168C148.539 56.5182 147.81 57.3439 146.874 57.9784C145.938 58.6206 144.795 59.0869 143.437 59.3774C142.079 59.6679 140.568 59.8208 138.888 59.8208H128.408V31.9553H128.4ZM138.289 43.1092C138.765 43.1092 139.233 43.0556 139.693 42.941C140.154 42.8339 140.56 42.6581 140.905 42.4211C141.258 42.1841 141.542 41.863 141.765 41.4579C141.987 41.0527 142.102 40.5558 142.102 39.9748C142.102 39.3938 141.987 38.8586 141.765 38.4534C141.542 38.0483 141.251 37.7272 140.882 37.4902C140.514 37.2532 140.107 37.085 139.647 36.9933C139.187 36.8939 138.734 36.848 138.289 36.848H134.561V43.1168H138.289V43.1092ZM138.665 54.974C139.11 54.974 139.616 54.9357 140.177 54.8669C140.737 54.7981 141.251 54.6376 141.726 54.3853C142.202 54.133 142.601 53.7737 142.923 53.2997C143.245 52.8258 143.406 52.176 143.406 51.335C143.406 50.5858 143.253 49.9742 142.946 49.5003C142.639 49.0263 142.248 48.6593 141.772 48.3918C141.297 48.1242 140.783 47.9483 140.223 47.849C139.663 47.7496 139.148 47.7037 138.673 47.7037H134.561V54.974H138.673H138.665Z" fill="#283848"/>
<path d="M153.303 31.9554H172.422V37.4673H159.64V42.8952H169.576V48.2389H159.64V54.2554H173.35V59.8132H153.311V31.9478L153.303 31.9554Z" fill="#283848"/>
<path d="M200.632 54.6758C200.049 55.4862 199.336 56.243 198.5 56.954C197.663 57.665 196.735 58.2842 195.715 58.8117C194.694 59.3392 193.59 59.7597 192.4 60.0655C191.211 60.3713 189.976 60.5242 188.695 60.5242C186.57 60.5242 184.629 60.1649 182.864 59.4386C181.099 58.7123 179.588 57.7032 178.314 56.4112C177.041 55.1193 176.059 53.5826 175.361 51.8167C174.662 50.0507 174.31 48.1089 174.31 45.9913C174.31 43.8737 174.662 42.0007 175.361 40.2042C176.059 38.4076 177.049 36.8481 178.314 35.5255C179.588 34.2029 181.107 33.1556 182.887 32.3911C184.659 31.6266 186.623 31.2444 188.779 31.2444C191.38 31.2444 193.651 31.7184 195.592 32.6663C197.533 33.6143 199.152 34.9751 200.433 36.7563L196.114 40.8922C195.277 39.7225 194.28 38.7822 193.137 38.0712C191.994 37.3603 190.62 37.0086 189.032 37.0086C187.774 37.0086 186.646 37.2379 185.634 37.6966C184.629 38.1553 183.777 38.7899 183.079 39.6002C182.381 40.4106 181.844 41.3509 181.468 42.4212C181.092 43.4914 180.9 44.6305 180.9 45.8231C180.9 47.0157 181.092 48.193 181.468 49.248C181.844 50.3106 182.381 51.228 183.079 52.0078C183.777 52.7876 184.613 53.3992 185.595 53.8502C186.57 54.2936 187.674 54.5153 188.902 54.5153C189.907 54.5153 190.782 54.4083 191.526 54.2019C192.262 53.9955 192.922 53.7126 193.497 53.3686C194.065 53.0169 194.579 52.6194 195.024 52.1531C195.469 51.6944 195.906 51.228 196.321 50.754L200.64 54.6835L200.632 54.6758Z" fill="#283848"/>
<path d="M203.103 31.9554H222.222V37.4673H209.44V42.8952H219.376V48.2389H209.44V54.2554H223.15V59.8132H203.111V31.9478L203.103 31.9554Z" fill="#283848"/>
<path d="M226.58 31.9553H237.06C238.794 31.9553 240.259 32.1617 241.463 32.5593C242.668 32.9644 243.642 33.4996 244.402 34.1647C245.154 34.8298 245.698 35.6096 246.036 36.4811C246.374 37.3602 246.542 38.27 246.542 39.2179C246.542 40.1124 246.381 40.8998 246.059 41.5802C245.737 42.2606 245.361 42.8492 244.924 43.3385C244.494 43.8278 244.026 44.21 243.543 44.4852C243.052 44.7604 242.637 44.9439 242.307 45.028C242.814 45.1427 243.389 45.3415 244.049 45.632C244.709 45.9225 245.33 46.3429 245.913 46.8857C246.496 47.4285 246.995 48.1089 247.402 48.9345C247.808 49.7525 248.008 50.7234 248.008 51.8396C248.008 53.2845 247.747 54.5153 247.233 55.5168C246.711 56.5182 245.99 57.3439 245.054 57.9784C244.118 58.6206 242.967 59.0869 241.617 59.3774C240.259 59.6679 238.748 59.8208 237.067 59.8208H226.587V31.9553H226.58ZM236.469 43.1092C236.945 43.1092 237.413 43.0556 237.873 42.941C238.333 42.8339 238.74 42.6581 239.085 42.4211C239.43 42.1841 239.722 41.863 239.944 41.4579C240.167 41.0527 240.282 40.5558 240.282 39.9748C240.282 39.3938 240.167 38.8586 239.944 38.4534C239.722 38.0483 239.43 37.7272 239.062 37.4902C238.701 37.2532 238.287 37.085 237.827 36.9933C237.367 36.8939 236.914 36.848 236.469 36.848H232.74V43.1168H236.469V43.1092ZM236.845 54.974C237.29 54.974 237.796 54.9357 238.356 54.8669C238.916 54.7981 239.43 54.6376 239.906 54.3853C240.382 54.133 240.781 53.7737 241.103 53.2997C241.425 52.8258 241.586 52.176 241.586 51.335C241.586 50.5858 241.433 49.9742 241.126 49.5003C240.819 49.0263 240.428 48.6593 239.952 48.3918C239.476 48.1242 238.962 47.9483 238.402 47.849C237.842 47.7496 237.328 47.7037 236.853 47.7037H232.74V54.974H236.853H236.845Z" fill="#283848"/>
<path d="M98.4251 72.3584L99.0312 72.2285V67.3128L98.3638 67.1829V66.426H100.282V69.0635C100.428 68.8494 100.604 68.6813 100.819 68.5666C101.034 68.4443 101.264 68.3908 101.525 68.3908C102.008 68.3908 102.392 68.5513 102.668 68.8724C102.944 69.1935 103.082 69.6904 103.082 70.3555V72.2285L103.681 72.3584V73.1076H101.287V72.3584L101.832 72.2285V70.3478C101.832 69.9885 101.77 69.7286 101.64 69.5833C101.509 69.4304 101.325 69.3617 101.072 69.3617C100.896 69.3617 100.742 69.3922 100.612 69.4534C100.481 69.5145 100.366 69.6063 100.282 69.721V72.2285L100.827 72.3584V73.1076H98.4328V72.3584H98.4251Z" fill="#283848"/>
<path d="M107.087 73.1076C107.056 73.0311 107.026 72.947 106.995 72.8706C106.972 72.7865 106.949 72.71 106.933 72.626C106.788 72.7941 106.604 72.9394 106.389 73.0388C106.174 73.1458 105.936 73.1993 105.66 73.1993C105.207 73.1993 104.839 73.077 104.578 72.8324C104.31 72.5877 104.179 72.2514 104.179 71.8232C104.179 71.3951 104.356 71.0511 104.701 70.8141C105.054 70.5771 105.56 70.4548 106.235 70.4548H106.872V70.0038C106.872 69.7821 106.811 69.6062 106.68 69.4839C106.55 69.3616 106.358 69.3004 106.105 69.3004C105.959 69.3004 105.836 69.3157 105.721 69.3463C105.606 69.3769 105.522 69.4151 105.453 69.461L105.368 69.9579H104.425V68.9335C104.655 68.7806 104.923 68.6506 105.215 68.5436C105.514 68.4366 105.836 68.3831 106.182 68.3831C106.757 68.3831 107.225 68.5207 107.586 68.8035C107.946 69.0864 108.123 69.4839 108.123 70.0038V71.915C108.123 71.9838 108.123 72.0526 108.123 72.1137C108.123 72.1749 108.123 72.2361 108.138 72.2972L108.522 72.3507V73.0999H107.072L107.087 73.1076ZM105.997 72.2743C106.189 72.2743 106.358 72.2361 106.512 72.152C106.665 72.0679 106.788 71.9685 106.872 71.8462V71.1428H106.235C105.967 71.1428 105.767 71.204 105.629 71.3263C105.491 71.4486 105.422 71.6015 105.422 71.7697C105.422 71.9303 105.476 72.0449 105.576 72.1367C105.675 72.2284 105.821 72.2666 105.997 72.2666V72.2743Z" fill="#283848"/>
<path d="M111.184 72.2362C111.407 72.2362 111.591 72.1751 111.721 72.0451C111.851 71.9151 111.921 71.7393 111.921 71.5253H113.056L113.071 71.5482C113.079 72.0145 112.91 72.4044 112.542 72.7255C112.181 73.0389 111.729 73.1995 111.184 73.1995C110.494 73.1995 109.956 72.9778 109.581 72.542C109.205 72.1063 109.021 71.5482 109.021 70.8602V70.7302C109.021 70.0498 109.212 69.4841 109.596 69.0483C109.98 68.6126 110.532 68.3909 111.245 68.3909C111.621 68.3909 111.959 68.4444 112.258 68.5591C112.557 68.6737 112.803 68.8266 113.002 69.033L113.018 70.2715H111.997L111.79 69.5452C111.729 69.4917 111.652 69.4459 111.56 69.4076C111.468 69.3694 111.368 69.3541 111.245 69.3541C110.892 69.3541 110.639 69.4841 110.494 69.7364C110.348 69.9886 110.271 70.325 110.271 70.7302V70.8602C110.271 71.273 110.34 71.6094 110.471 71.8616C110.601 72.1139 110.839 72.2362 111.176 72.2362H111.184Z" fill="#283848"/>
<path d="M115.91 73.1918C115.242 73.1918 114.705 72.9778 114.299 72.5497C113.9 72.1216 113.7 71.5788 113.7 70.9213V70.7531C113.7 70.0651 113.892 69.4994 114.268 69.056C114.644 68.6126 115.158 68.3909 115.795 68.3909C116.424 68.3909 116.907 68.582 117.252 68.9566C117.598 69.3312 117.774 69.8434 117.774 70.4856V71.1659H114.997V71.1889C115.012 71.4947 115.112 71.747 115.296 71.9457C115.48 72.1445 115.726 72.2439 116.04 72.2439C116.316 72.2439 116.547 72.2133 116.731 72.1598C116.915 72.1063 117.114 72.0145 117.329 71.8999L117.667 72.672C117.475 72.8249 117.222 72.9472 116.922 73.0542C116.616 73.1536 116.278 73.2071 115.902 73.2071L115.91 73.1918ZM115.795 69.3465C115.565 69.3465 115.38 69.4306 115.242 69.614C115.104 69.7899 115.027 70.0269 114.997 70.3097L115.012 70.3327H116.547V70.218C116.547 69.9504 116.485 69.744 116.362 69.5835C116.24 69.4229 116.048 69.3465 115.795 69.3465Z" fill="#283848"/>
<path d="M118.265 69.2242V68.475H120.099L120.152 69.0866C120.298 68.8649 120.49 68.689 120.713 68.5743C120.935 68.452 121.196 68.3909 121.495 68.3909C121.794 68.3909 122.047 68.4597 122.262 68.5896C122.477 68.7196 122.638 68.9184 122.746 69.1859C122.891 68.9413 123.076 68.7425 123.306 68.6049C123.536 68.4673 123.804 68.3985 124.111 68.3985C124.572 68.3985 124.932 68.5591 125.193 68.8725C125.462 69.1859 125.592 69.6676 125.592 70.3097V72.2362L126.198 72.3662V73.1154H123.797V72.3662L124.341 72.2362V70.3021C124.341 69.9504 124.28 69.7058 124.173 69.5682C124.058 69.4306 123.889 69.3618 123.659 69.3618C123.482 69.3618 123.329 69.4 123.198 69.4764C123.068 69.5529 122.96 69.6676 122.884 69.8052C122.884 69.8587 122.884 69.9045 122.884 69.9428C122.884 69.981 122.884 70.0192 122.884 70.0574V72.2209L123.39 72.3509V73.1001H121.127V72.3509L121.633 72.2209V70.2868C121.633 69.9428 121.572 69.7058 121.457 69.5605C121.342 69.4229 121.173 69.3465 120.943 69.3465C120.774 69.3465 120.628 69.3771 120.498 69.4459C120.367 69.507 120.268 69.5988 120.183 69.7211V72.2209L120.72 72.3509V73.1001H118.327V72.3509L118.933 72.2209V69.3465L118.265 69.2165V69.2242Z" fill="#283848"/>
<path d="M126.597 70.7455C126.597 70.0574 126.789 69.4917 127.18 69.0483C127.572 68.6049 128.109 68.3909 128.791 68.3909C129.474 68.3909 130.019 68.6126 130.403 69.0483C130.794 69.4917 130.986 70.0574 130.986 70.7455V70.8372C130.986 71.5329 130.794 72.0986 130.403 72.542C130.011 72.9778 129.482 73.1995 128.799 73.1995C128.116 73.1995 127.572 72.9778 127.18 72.542C126.789 72.1063 126.597 71.5406 126.597 70.8372V70.7455ZM127.855 70.8372C127.855 71.2577 127.932 71.6017 128.078 71.854C128.224 72.1063 128.469 72.2362 128.799 72.2362C129.129 72.2362 129.359 72.1063 129.513 71.854C129.666 71.5941 129.735 71.2577 129.735 70.8372V70.7455C129.735 70.3327 129.658 69.9963 129.505 69.7364C129.351 69.4764 129.114 69.3465 128.784 69.3465C128.454 69.3465 128.216 69.4764 128.07 69.7364C127.924 69.9963 127.848 70.3327 127.848 70.7455V70.8372H127.855Z" fill="#283848"/>
<path d="M135.366 70.065H134.522L134.384 69.484C134.3 69.4152 134.192 69.354 134.062 69.3158C133.931 69.2699 133.786 69.247 133.632 69.247C133.41 69.247 133.241 69.2929 133.111 69.3923C132.98 69.4916 132.919 69.614 132.919 69.7669C132.919 69.9045 132.98 70.0268 133.103 70.1109C133.226 70.2026 133.471 70.2867 133.839 70.3555C134.415 70.4702 134.844 70.6384 135.121 70.8601C135.397 71.0818 135.535 71.3876 135.535 71.7775C135.535 72.1903 135.358 72.5343 134.998 72.7942C134.637 73.0618 134.162 73.1918 133.579 73.1918C133.218 73.1918 132.896 73.1382 132.589 73.0389C132.29 72.9318 132.021 72.7866 131.791 72.5955L131.776 71.5558H132.65L132.819 72.1597C132.896 72.2209 132.995 72.2667 133.126 72.2973C133.256 72.3279 133.394 72.3432 133.533 72.3432C133.786 72.3432 133.985 72.2973 134.116 72.2056C134.246 72.1138 134.315 71.9915 134.315 71.831C134.315 71.6934 134.246 71.5787 134.116 71.4793C133.977 71.3799 133.732 71.2882 133.371 71.2117C132.827 71.0971 132.412 70.9365 132.129 70.7148C131.852 70.4931 131.707 70.2026 131.707 69.8204C131.707 69.4381 131.868 69.0941 132.19 68.8189C132.512 68.536 132.965 68.3984 133.563 68.3984C133.924 68.3984 134.269 68.4443 134.584 68.5437C134.906 68.6431 135.159 68.7654 135.343 68.9183L135.358 70.0727L135.366 70.065Z" fill="#283848"/>
<path d="M138.197 69.2242V68.475H140.031L140.085 69.0866C140.238 68.8649 140.422 68.689 140.645 68.5743C140.867 68.452 141.128 68.3909 141.427 68.3909C141.726 68.3909 141.98 68.4597 142.194 68.5896C142.409 68.7196 142.57 68.9184 142.678 69.1859C142.824 68.9413 143.008 68.7425 143.238 68.6049C143.468 68.4673 143.737 68.3985 144.043 68.3985C144.504 68.3985 144.864 68.5591 145.133 68.8725C145.401 69.1859 145.532 69.6676 145.532 70.3097V72.2362L146.138 72.3662V73.1154H143.737V72.3662L144.274 72.2362V70.3021C144.274 69.9504 144.22 69.7058 144.105 69.5682C143.99 69.4306 143.821 69.3618 143.591 69.3618C143.414 69.3618 143.261 69.4 143.13 69.4764C143 69.5529 142.9 69.6676 142.824 69.8052C142.824 69.8587 142.824 69.9045 142.824 69.9428C142.824 69.981 142.824 70.0192 142.824 70.0574V72.2209L143.33 72.3509V73.1001H141.067V72.3509L141.573 72.2209V70.2868C141.573 69.9428 141.512 69.7058 141.404 69.5605C141.289 69.4229 141.12 69.3465 140.89 69.3465C140.721 69.3465 140.576 69.3771 140.445 69.4459C140.315 69.507 140.215 69.5988 140.131 69.7211V72.2209L140.675 72.3509V73.1001H138.282V72.3509L138.888 72.2209V69.3465L138.22 69.2165L138.197 69.2242Z" fill="#93C01F"/>
<path d="M149.536 73.1075C149.498 73.0311 149.467 72.947 149.444 72.8705C149.421 72.7865 149.398 72.71 149.383 72.6259C149.237 72.7941 149.053 72.9394 148.838 73.0387C148.624 73.1458 148.378 73.1993 148.102 73.1993C147.649 73.1993 147.289 73.077 147.02 72.8323C146.752 72.5877 146.621 72.2513 146.621 71.8232C146.621 71.3951 146.798 71.0511 147.143 70.8141C147.488 70.5771 148.002 70.4548 148.677 70.4548H149.314V70.0037C149.314 69.782 149.253 69.6062 149.122 69.4839C148.992 69.3616 148.8 69.3004 148.554 69.3004C148.409 69.3004 148.286 69.3157 148.171 69.3463C148.056 69.3769 147.971 69.4151 147.902 69.4609L147.818 69.9579H146.874V68.9335C147.104 68.7806 147.373 68.6506 147.664 68.5436C147.964 68.4365 148.286 68.383 148.631 68.383C149.207 68.383 149.675 68.5206 150.035 68.8035C150.396 69.0863 150.572 69.4839 150.572 70.0037V71.9149C150.572 71.9837 150.572 72.0526 150.572 72.1137C150.572 72.1749 150.572 72.236 150.588 72.2972L150.971 72.3507V73.0999H149.521L149.536 73.1075ZM148.447 72.2743C148.631 72.2743 148.808 72.236 148.961 72.1519C149.115 72.0678 149.237 71.9685 149.322 71.8461V71.1428H148.685C148.416 71.1428 148.217 71.204 148.079 71.3263C147.941 71.4486 147.872 71.6015 147.872 71.7697C147.872 71.9302 147.925 72.0449 148.025 72.1366C148.125 72.2284 148.271 72.2666 148.447 72.2666V72.2743ZM148.869 66.6782H150.196V66.7012L149.022 67.8173H148.017L148.869 66.6782Z" fill="#93C01F"/>
<path d="M155.245 70.065H154.401L154.27 69.484C154.186 69.4152 154.079 69.354 153.948 69.3158C153.818 69.2699 153.672 69.247 153.518 69.247C153.296 69.247 153.127 69.2929 152.997 69.3923C152.866 69.4916 152.805 69.614 152.805 69.7669C152.805 69.9045 152.866 70.0268 152.989 70.1109C153.112 70.2026 153.357 70.2867 153.726 70.3555C154.301 70.4702 154.731 70.6384 155.007 70.8601C155.283 71.0818 155.421 71.3876 155.421 71.7775C155.421 72.1903 155.245 72.5343 154.884 72.7942C154.524 73.0618 154.048 73.1918 153.465 73.1918C153.104 73.1918 152.774 73.1382 152.475 73.0389C152.176 72.9318 151.915 72.7866 151.677 72.5955L151.662 71.5558H152.536L152.705 72.1597C152.782 72.2209 152.882 72.2667 153.012 72.2973C153.143 72.3279 153.273 72.3432 153.419 72.3432C153.672 72.3432 153.864 72.2973 154.002 72.2056C154.132 72.1138 154.201 71.9915 154.201 71.831C154.201 71.6934 154.132 71.5787 154.002 71.4793C153.864 71.3799 153.618 71.2882 153.258 71.2117C152.713 71.0971 152.299 70.9365 152.015 70.7148C151.739 70.4931 151.593 70.2026 151.593 69.8204C151.593 69.4381 151.754 69.0941 152.076 68.8189C152.398 68.536 152.851 68.3984 153.449 68.3984C153.81 68.3984 154.155 68.4443 154.477 68.5437C154.8 68.6431 155.053 68.7654 155.237 68.9183L155.252 70.0727L155.245 70.065Z" fill="#93C01F"/>
<path d="M158.313 72.3585L158.912 72.2286V69.3541L158.244 69.2242V68.475H160.078L160.131 69.1477C160.239 68.9107 160.377 68.7196 160.553 68.5896C160.722 68.4597 160.922 68.3909 161.152 68.3909C161.221 68.3909 161.29 68.3909 161.359 68.4062C161.436 68.4138 161.497 68.4291 161.543 68.4444L161.413 69.5835L160.899 69.5682C160.715 69.5682 160.561 69.6064 160.446 69.6752C160.323 69.744 160.231 69.851 160.17 69.981V72.2362L160.768 72.3662V73.1154H158.313V72.3662V72.3585Z" fill="#93C01F"/>
<path d="M164.113 73.1918C163.446 73.1918 162.909 72.9778 162.51 72.5497C162.111 72.1216 161.904 71.5788 161.904 70.9213V70.7531C161.904 70.0651 162.096 69.4994 162.472 69.056C162.855 68.6126 163.362 68.3909 163.998 68.3909C164.627 68.3909 165.111 68.582 165.456 68.9566C165.801 69.3312 165.978 69.8434 165.978 70.4856V71.1659H163.2V71.1889C163.216 71.4947 163.315 71.747 163.5 71.9457C163.684 72.1445 163.929 72.2439 164.244 72.2439C164.52 72.2439 164.75 72.2133 164.934 72.1598C165.118 72.1063 165.318 72.0145 165.533 71.8999L165.87 72.672C165.678 72.8249 165.433 72.9472 165.126 73.0542C164.819 73.1536 164.482 73.2071 164.106 73.2071L164.113 73.1918ZM163.998 69.3465C163.768 69.3465 163.584 69.4306 163.446 69.614C163.315 69.7899 163.231 70.0269 163.2 70.3097L163.216 70.3327H164.75V70.218C164.75 69.9504 164.689 69.744 164.566 69.5835C164.443 69.4229 164.251 69.3465 163.998 69.3465Z" fill="#93C01F"/>
<path d="M169.576 73.1076C169.538 73.0311 169.515 72.947 169.484 72.8706C169.461 72.7865 169.438 72.71 169.423 72.626C169.277 72.7941 169.093 72.9394 168.878 73.0388C168.663 73.1458 168.418 73.1993 168.149 73.1993C167.697 73.1993 167.328 73.077 167.067 72.8324C166.799 72.5877 166.668 72.2514 166.668 71.8232C166.668 71.3951 166.845 71.0511 167.19 70.8141C167.535 70.5771 168.049 70.4548 168.732 70.4548H169.369V70.0038C169.369 69.7821 169.308 69.6062 169.177 69.4839C169.047 69.3616 168.855 69.3004 168.602 69.3004C168.456 69.3004 168.333 69.3157 168.218 69.3463C168.103 69.3769 168.019 69.4151 167.95 69.461L167.873 69.9579H166.929V68.9335C167.159 68.7806 167.428 68.6506 167.72 68.5436C168.019 68.4366 168.341 68.3831 168.686 68.3831C169.262 68.3831 169.73 68.5207 170.09 68.8035C170.451 69.0864 170.627 69.4839 170.627 70.0038V71.915C170.627 71.9838 170.627 72.0526 170.627 72.1137C170.627 72.1749 170.627 72.2361 170.643 72.2972L171.026 72.3507V73.0999H169.576V73.1076ZM168.487 72.2743C168.679 72.2743 168.847 72.2361 169.001 72.152C169.154 72.0679 169.277 71.9685 169.361 71.8462V71.1428H168.725C168.456 71.1428 168.257 71.204 168.118 71.3263C167.98 71.4486 167.911 71.6015 167.911 71.7697C167.911 71.9303 167.965 72.0449 168.065 72.1367C168.165 72.2284 168.31 72.2666 168.487 72.2666V72.2743Z" fill="#93C01F"/>
<path d="M171.364 67.1829V66.426H173.289V72.2285L173.896 72.3584V73.1076H171.433V72.3584L172.039 72.2285V67.3128L171.371 67.1829H171.364Z" fill="#93C01F"/>
<path d="M177.471 67.1829V66.426H179.396V72.2285L180.002 72.3584V73.1076H177.54V72.3584L178.146 72.2285V67.3128L177.478 67.1829H177.471Z" fill="#283848"/>
<path d="M183.501 73.1076C183.47 73.0311 183.439 72.947 183.409 72.8706C183.386 72.7865 183.363 72.71 183.347 72.626C183.202 72.7941 183.017 72.9394 182.803 73.0388C182.588 73.1458 182.342 73.1993 182.066 73.1993C181.614 73.1993 181.253 73.077 180.984 72.8324C180.716 72.5877 180.585 72.2514 180.585 71.8232C180.585 71.3951 180.762 71.0511 181.107 70.8141C181.46 70.5771 181.966 70.4548 182.642 70.4548H183.278V70.0038C183.278 69.7821 183.217 69.6062 183.087 69.4839C182.956 69.3616 182.764 69.3004 182.511 69.3004C182.365 69.3004 182.243 69.3157 182.128 69.3463C182.012 69.3769 181.92 69.4151 181.859 69.461L181.775 69.9579H180.831V68.9335C181.061 68.7806 181.33 68.6506 181.621 68.5436C181.92 68.4366 182.243 68.3831 182.588 68.3831C183.163 68.3831 183.631 68.5207 183.992 68.8035C184.352 69.0864 184.529 69.4839 184.529 70.0038V71.915C184.529 71.9838 184.529 72.0526 184.529 72.1137C184.529 72.1749 184.529 72.2361 184.544 72.2972L184.928 72.3507V73.0999H183.478L183.501 73.1076ZM182.411 72.2743C182.603 72.2743 182.772 72.2361 182.925 72.152C183.079 72.0679 183.202 71.9685 183.286 71.8462V71.1428H182.649C182.381 71.1428 182.181 71.204 182.043 71.3263C181.905 71.4486 181.836 71.6015 181.836 71.7697C181.836 71.9303 181.89 72.0449 181.989 72.1367C182.089 72.2284 182.235 72.2666 182.411 72.2666V72.2743Z" fill="#283848"/>
<path d="M190.014 73.1918C189.347 73.1918 188.81 72.9778 188.403 72.5497C188.004 72.1216 187.805 71.5788 187.805 70.9213V70.7531C187.805 70.0651 187.996 69.4994 188.372 69.056C188.756 68.6126 189.262 68.3909 189.899 68.3909C190.528 68.3909 191.012 68.582 191.357 68.9566C191.702 69.3312 191.879 69.8434 191.879 70.4856V71.1659H189.101V71.1889C189.117 71.4947 189.216 71.747 189.4 71.9457C189.585 72.1445 189.83 72.2439 190.145 72.2439C190.421 72.2439 190.651 72.2133 190.835 72.1598C191.019 72.1063 191.219 72.0145 191.434 71.8999L191.771 72.672C191.579 72.8249 191.334 72.9472 191.027 73.0542C190.72 73.1536 190.383 73.2071 190.007 73.2071L190.014 73.1918ZM189.899 69.3465C189.669 69.3465 189.485 69.4306 189.347 69.614C189.216 69.7899 189.132 70.0269 189.101 70.3097L189.117 70.3327H190.659V70.218C190.659 69.9504 190.597 69.744 190.475 69.5835C190.352 69.4229 190.16 69.3465 189.907 69.3465H189.899Z" fill="#283848"/>
<path d="M194.794 72.2362C195.017 72.2362 195.193 72.1751 195.331 72.0451C195.462 71.9151 195.531 71.7393 195.531 71.5253H196.666L196.682 71.5482C196.697 72.0145 196.521 72.4044 196.152 72.7255C195.792 73.0389 195.339 73.1995 194.794 73.1995C194.104 73.1995 193.567 72.9778 193.191 72.542C192.815 72.1063 192.631 71.5482 192.631 70.8602V70.7302C192.631 70.0498 192.823 69.4841 193.206 69.0483C193.59 68.6126 194.142 68.3909 194.856 68.3909C195.232 68.3909 195.569 68.4444 195.868 68.5591C196.168 68.6737 196.413 68.8266 196.613 69.033L196.628 70.2715H195.608L195.4 69.5452C195.339 69.4917 195.262 69.4459 195.17 69.4076C195.078 69.3694 194.979 69.3541 194.856 69.3541C194.503 69.3541 194.25 69.4841 194.104 69.7364C193.958 69.9886 193.881 70.325 193.881 70.7302V70.8602C193.881 71.273 193.95 71.6094 194.081 71.8616C194.211 72.1139 194.449 72.2362 194.787 72.2362H194.794Z" fill="#283848"/>
<path d="M197.379 70.7455C197.379 70.0574 197.571 69.4917 197.962 69.0483C198.354 68.6049 198.883 68.3909 199.574 68.3909C200.264 68.3909 200.801 68.6126 201.185 69.0483C201.576 69.4917 201.768 70.0574 201.768 70.7455V70.8372C201.768 71.5329 201.576 72.0986 201.185 72.542C200.801 72.9778 200.264 73.1995 199.581 73.1995C198.898 73.1995 198.354 72.9778 197.962 72.542C197.571 72.1063 197.379 71.5406 197.379 70.8372V70.7455ZM198.638 70.8372C198.638 71.2577 198.714 71.6017 198.86 71.854C199.014 72.1063 199.251 72.2362 199.581 72.2362C199.911 72.2362 200.141 72.1063 200.295 71.854C200.441 71.5941 200.517 71.2577 200.517 70.8372V70.7455C200.517 70.3327 200.441 69.9963 200.287 69.7364C200.134 69.4764 199.896 69.3465 199.566 69.3465C199.236 69.3465 199.006 69.4764 198.852 69.7364C198.707 69.9963 198.63 70.3327 198.63 70.7455V70.8372H198.638Z" fill="#283848"/>
<path d="M202.374 72.3585L202.973 72.2286V69.3541L202.305 69.2242V68.475H204.139L204.193 69.1401C204.346 68.9031 204.538 68.7196 204.768 68.5896C204.99 68.4597 205.244 68.3909 205.527 68.3909C205.995 68.3909 206.364 68.5361 206.625 68.8343C206.885 69.1248 207.016 69.5911 207.016 70.218V72.2362L207.614 72.3662V73.1154H205.221V72.3662L205.758 72.2362V70.2256C205.758 69.9122 205.696 69.6981 205.573 69.5605C205.443 69.4306 205.259 69.3694 204.998 69.3694C204.829 69.3694 204.684 69.4 204.553 69.4688C204.423 69.5376 204.315 69.6293 204.223 69.7517V72.2362L204.73 72.3662V73.1154H202.367V72.3662L202.374 72.3585Z" fill="#283848"/>
<path d="M208.113 70.7455C208.113 70.0574 208.305 69.4917 208.696 69.0483C209.079 68.6049 209.617 68.3909 210.307 68.3909C210.997 68.3909 211.535 68.6126 211.918 69.0483C212.309 69.4917 212.501 70.0574 212.501 70.7455V70.8372C212.501 71.5329 212.309 72.0986 211.918 72.542C211.535 72.9778 210.997 73.1995 210.315 73.1995C209.632 73.1995 209.087 72.9778 208.696 72.542C208.305 72.1063 208.113 71.5406 208.113 70.8372V70.7455ZM209.371 70.8372C209.371 71.2577 209.448 71.6017 209.593 71.854C209.739 72.1063 209.985 72.2362 210.315 72.2362C210.645 72.2362 210.875 72.1063 211.028 71.854C211.182 71.5941 211.251 71.2577 211.251 70.8372V70.7455C211.251 70.3327 211.174 69.9963 211.02 69.7364C210.867 69.4764 210.629 69.3465 210.307 69.3465C209.985 69.3465 209.739 69.4764 209.593 69.7364C209.448 69.9963 209.371 70.3327 209.371 70.7455V70.8372Z" fill="#283848"/>
<path d="M213.031 69.2242V68.475H214.864L214.918 69.0866C215.072 68.8649 215.256 68.689 215.478 68.5743C215.701 68.452 215.961 68.3909 216.261 68.3909C216.56 68.3909 216.813 68.4597 217.028 68.5896C217.243 68.7196 217.404 68.9184 217.511 69.1859C217.657 68.9413 217.841 68.7425 218.071 68.6049C218.301 68.4673 218.57 68.3985 218.877 68.3985C219.337 68.3985 219.698 68.5591 219.959 68.8725C220.227 69.1859 220.358 69.6676 220.358 70.3097V72.2362L220.964 72.3662V73.1154H218.562V72.3662L219.099 72.2362V70.3021C219.099 69.9504 219.046 69.7058 218.931 69.5682C218.815 69.4306 218.647 69.3618 218.417 69.3618C218.24 69.3618 218.087 69.4 217.956 69.4764C217.826 69.5529 217.718 69.6676 217.642 69.8052C217.642 69.8587 217.642 69.9045 217.642 69.9428C217.642 69.981 217.642 70.0192 217.642 70.0574V72.2209L218.148 72.3509V73.1001H215.885V72.3509L216.391 72.2209V70.2868C216.391 69.9428 216.33 69.7058 216.222 69.5605C216.107 69.4229 215.938 69.3465 215.708 69.3465C215.54 69.3465 215.394 69.3771 215.263 69.4459C215.133 69.507 215.033 69.5988 214.949 69.7211V72.2209L215.493 72.3509V73.1001H213.1V72.3509L213.706 72.2209V69.3465L213.038 69.2165L213.031 69.2242Z" fill="#283848"/>
<path d="M221.523 69.2241V68.4749H223.449V72.2285L224.048 72.3585V73.1077H221.585V72.3585L222.191 72.2285V69.3541L221.523 69.2241ZM222.874 66.6631H224.201V66.686L223.02 67.8022H222.014L222.874 66.6631Z" fill="#283848"/>
<path d="M227.531 73.1076C227.5 73.0311 227.47 72.947 227.439 72.8706C227.416 72.7865 227.393 72.71 227.378 72.626C227.232 72.7941 227.048 72.9394 226.833 73.0388C226.618 73.1458 226.373 73.1993 226.096 73.1993C225.644 73.1993 225.276 73.077 225.015 72.8324C224.746 72.5877 224.616 72.2514 224.616 71.8232C224.616 71.3951 224.792 71.0511 225.137 70.8141C225.49 70.5771 225.997 70.4548 226.672 70.4548H227.316V70.0038C227.316 69.7821 227.255 69.6062 227.125 69.4839C226.994 69.3616 226.802 69.3004 226.549 69.3004C226.403 69.3004 226.281 69.3157 226.165 69.3463C226.05 69.3769 225.966 69.4151 225.897 69.461L225.813 69.9579H224.869V68.9335C225.099 68.7806 225.368 68.6506 225.659 68.5436C225.958 68.4366 226.281 68.3831 226.626 68.3831C227.201 68.3831 227.669 68.5207 228.03 68.8035C228.39 69.0864 228.567 69.4839 228.567 70.0038V71.915C228.567 71.9838 228.567 72.0526 228.567 72.1137C228.567 72.1749 228.567 72.2361 228.582 72.2972L228.966 72.3507V73.0999H227.516L227.531 73.1076ZM226.442 72.2743C226.633 72.2743 226.802 72.2361 226.956 72.152C227.109 72.0679 227.232 71.9685 227.316 71.8462V71.1428H226.672C226.403 71.1428 226.204 71.204 226.066 71.3263C225.928 71.4486 225.859 71.6015 225.859 71.7697C225.859 71.9303 225.912 72.0449 226.012 72.1367C226.112 72.2284 226.258 72.2666 226.434 72.2666L226.442 72.2743Z" fill="#283848"/>
<path d="M231.919 72.3585L232.518 72.2286V69.3541L231.85 69.2242V68.475H233.684L233.737 69.1477C233.845 68.9107 233.991 68.7196 234.159 68.5896C234.328 68.4597 234.528 68.3909 234.758 68.3909C234.819 68.3909 234.896 68.3909 234.965 68.4062C235.034 68.4138 235.095 68.4291 235.149 68.4444L235.019 69.5835L234.505 69.5682C234.321 69.5682 234.167 69.6064 234.052 69.6752C233.929 69.744 233.837 69.851 233.776 69.981V72.2362L234.374 72.3662V73.1154H231.919V72.3662V72.3585Z" fill="#283848"/>
<path d="M237.804 73.1918C237.136 73.1918 236.599 72.9778 236.193 72.5497C235.794 72.1216 235.594 71.5788 235.594 70.9213V70.7531C235.594 70.0651 235.786 69.4994 236.162 69.056C236.538 68.6126 237.052 68.3909 237.689 68.3909C238.318 68.3909 238.801 68.582 239.146 68.9566C239.492 69.3312 239.668 69.8434 239.668 70.4856V71.1659H236.891V71.1889C236.906 71.4947 237.006 71.747 237.19 71.9457C237.374 72.1445 237.62 72.2439 237.934 72.2439C238.21 72.2439 238.441 72.2133 238.625 72.1598C238.809 72.1063 239.008 72.0145 239.223 71.8999L239.561 72.672C239.369 72.8249 239.123 72.9472 238.817 73.0542C238.51 73.1536 238.172 73.2071 237.796 73.2071L237.804 73.1918ZM237.689 69.3465C237.459 69.3465 237.274 69.4306 237.136 69.614C236.998 69.7899 236.914 70.0269 236.891 70.3097L236.906 70.3327H238.441V70.218C238.441 69.9504 238.379 69.744 238.256 69.5835C238.134 69.4229 237.942 69.3465 237.689 69.3465Z" fill="#283848"/>
<path d="M243.358 73.1076C243.328 73.0311 243.297 72.947 243.266 72.8706C243.243 72.7865 243.22 72.71 243.205 72.626C243.059 72.7941 242.875 72.9394 242.66 73.0388C242.445 73.1458 242.2 73.1993 241.924 73.1993C241.471 73.1993 241.11 73.077 240.842 72.8324C240.573 72.5877 240.443 72.2514 240.443 71.8232C240.443 71.3951 240.619 71.0511 240.965 70.8141C241.317 70.5771 241.824 70.4548 242.499 70.4548H243.143V70.0038C243.143 69.7821 243.082 69.6062 242.952 69.4839C242.821 69.3616 242.629 69.3004 242.384 69.3004C242.238 69.3004 242.115 69.3157 242 69.3463C241.885 69.3769 241.801 69.4151 241.732 69.461L241.647 69.9579H240.704V68.9335C240.934 68.7806 241.202 68.6506 241.494 68.5436C241.793 68.4366 242.115 68.3831 242.461 68.3831C243.036 68.3831 243.504 68.5207 243.865 68.8035C244.225 69.0864 244.409 69.4839 244.409 70.0038V71.915C244.409 71.9838 244.409 72.0526 244.409 72.1137C244.409 72.1749 244.409 72.2361 244.425 72.2972L244.808 72.3507V73.0999H243.358V73.1076ZM242.269 72.2743C242.461 72.2743 242.629 72.2361 242.783 72.152C242.936 72.0679 243.059 71.9685 243.143 71.8462V71.1428H242.499C242.23 71.1428 242.031 71.204 241.893 71.3263C241.755 71.4486 241.686 71.6015 241.686 71.7697C241.686 71.9303 241.739 72.0449 241.839 72.1367C241.939 72.2284 242.085 72.2666 242.261 72.2666L242.269 72.2743Z" fill="#283848"/>
<path d="M245.23 67.1829V66.426H247.156V72.2285L247.762 72.3584V73.1076H245.3V72.3584L245.906 72.2285V67.3128L245.238 67.1829H245.23Z" fill="#283848"/>
</g>
<defs>
<clipPath id="clip0_166_1085">
<rect width="248" height="114" fill="white"/>
</clipPath>
</defs>
</svg>
